<?xml version="1.0" encoding="UTF-8"?>
<svg version="1.1" xmlns="http://www.w3.org/2000/svg" width="290" height="125">
<path d="M0 0 C3 1 3 1 4 3 C4.04827764 4.34158207 4.03724384 5.68564963 3.9921875 7.02734375 C3.96705078 8.21553711 3.96705078 8.21553711 3.94140625 9.42773438 C3.89723274 11.09723325 3.84518298 12.76654281 3.78515625 14.43554688 C3.77097656 15.22896484 3.75679688 16.02238281 3.7421875 16.83984375 C3.7201123 17.56550537 3.69803711 18.29116699 3.67529297 19.03881836 C4.0912257 21.55098951 5.20274722 22.27105347 7 24 C7 24.99 7 25.98 7 27 C7.66 27 8.32 27 9 27 C9 27.66 9 28.32 9 29 C10.485 29.495 10.485 29.495 12 30 C11.87431641 31.06541016 11.87431641 31.06541016 11.74609375 32.15234375 C11.64425781 33.07144531 11.54242188 33.99054687 11.4375 34.9375 C11.28087891 36.31228516 11.28087891 36.31228516 11.12109375 37.71484375 C11.08113281 38.46894531 11.04117188 39.22304688 11 40 C11.33 40.33 11.66 40.66 12 41 C12.54054455 44.55214992 12.96661061 48.11326665 13.40234375 51.6796875 C13.79455954 55.12357633 13.79455954 55.12357633 16 58 C17.65 57.67 19.3 57.34 21 57 C21.33 57.66 21.66 58.32 22 59 C21.06553465 61.03144641 20.06775224 63.03533587 19 65 C19.5775 64.649375 20.155 64.29875 20.75 63.9375 C23.35801776 62.85082593 24.39417629 63.06934867 27 64 C26.8125 65.875 26.8125 65.875 26 68 C23.4375 69.25 23.4375 69.25 21 70 C21.2165625 70.60585937 21.433125 71.21171875 21.65625 71.8359375 C24.26871563 79.69752387 25.83005028 86.93579906 22.125 94.6875 C18.72788373 100.16766178 13.11991751 104.66593147 6.94921875 106.6640625 C-1.15208979 108.06028 -7.16382727 106.65537713 -14 102 C-19.55878414 97.20255027 -22.27911069 92.08023029 -24 85 C-25.65 85 -27.3 85 -29 85 C-28.505 90.445 -28.505 90.445 -28 96 C-26.02 95.67 -24.04 95.34 -22 95 C-22.33 96.65 -22.66 98.3 -23 100 C-24.423125 100.37125 -24.423125 100.37125 -25.875 100.75 C-29.07714515 101.67806734 -29.07714515 101.67806734 -30.3125 104.0625 C-30.539375 104.701875 -30.76625 105.34125 -31 106 C-32 107 -32 107 -34.4375 107.1875 C-37 107 -37 107 -39 105 C-40.27848675 101.47974852 -40.11393001 97.97604277 -40.09765625 94.265625 C-40.09443359 92.97011719 -40.09121094 91.67460938 -40.08789062 90.33984375 C-40.07953598 88.97656183 -40.07107104 87.61328058 -40.0625 86.25 C-40.05748168 84.87109535 -40.05291935 83.49218896 -40.04882812 82.11328125 C-40.03704093 78.74214341 -40.02058635 75.37109372 -40 72 C-42.9279478 75.47349705 -45.74221908 78.96665707 -48.4375 82.625 C-51.65617584 86.73852322 -54.61243432 90.44402548 -60.046875 91.3359375 C-63.00762066 91.47641083 -65.33202495 91.42305087 -67.875 89.8125 C-69.23139999 87.6271889 -70.1484919 85.42352305 -71 83 C-71.66 83 -72.32 83 -73 83 C-74.38232443 81.37373596 -75.71937515 79.7074998 -77 78 C-77.04898438 78.88042969 -77.09796875 79.76085937 -77.1484375 80.66796875 C-77.22320312 81.82941406 -77.29796875 82.99085937 -77.375 84.1875 C-77.44460937 85.33605469 -77.51421875 86.48460938 -77.5859375 87.66796875 C-77.97924341 90.83296816 -78.7933844 93.08123024 -80 96 C-80.30890042 98.53767557 -80.43666368 101.04499127 -80.55859375 103.59765625 C-81.08574343 106.46665671 -82.01221913 107.88768346 -84 110 C-86.5 110.5 -86.5 110.5 -89 110 C-91.37810796 107.63891907 -91.96895509 106.26438242 -92.36328125 102.90625 C-92.34652344 101.7821875 -92.32976562 100.658125 -92.3125 99.5 C-92.30863281 98.3759375 -92.30476563 97.251875 -92.30078125 96.09375 C-92 93 -92 93 -90.99780273 91.14819336 C-89.75714199 88.47714519 -89.74133427 86.47420706 -89.734375 83.53515625 C-89.73179688 82.48779297 -89.72921875 81.44042969 -89.7265625 80.36132812 C-89.73429687 79.27271484 -89.74203125 78.18410156 -89.75 77.0625 C-89.74226563 75.97775391 -89.73453125 74.89300781 -89.7265625 73.77539062 C-89.72914062 72.72673828 -89.73171875 71.67808594 -89.734375 70.59765625 C-89.73663086 69.64383057 -89.73888672 68.69000488 -89.74121094 67.70727539 C-90.01886241 64.80267431 -90.87132794 62.67360768 -92 60 C-92.1953125 56.66796875 -92.1953125 56.66796875 -92.125 53.1875 C-92.10695312 52.02605469 -92.08890625 50.86460938 -92.0703125 49.66796875 C-92.04710937 48.78753906 -92.02390625 47.90710937 -92 47 C-91.34 47 -90.68 47 -90 47 C-90 46.34 -90 45.68 -90 45 C-88.375 44.25 -88.375 44.25 -86 44 C-81.07992532 46.68009408 -78.88978161 49.26270922 -76.4375 54.25 C-73.84287212 59.35353017 -71.11720193 64.20430473 -68 69 C-67.65195313 69.5878125 -67.30390625 70.175625 -66.9453125 70.78125 C-65.06788157 73.90062042 -65.06788157 73.90062042 -62.09765625 75.859375 C-59.91754443 76.23037064 -59.91754443 76.23037064 -58.21875 74.70703125 C-57.6515625 74.08183594 -57.084375 73.45664063 -56.5 72.8125 C-55.89671875 72.16023438 -55.2934375 71.50796875 -54.671875 70.8359375 C-54.12015625 70.23007813 -53.5684375 69.62421875 -53 69 C-52.2575 68.319375 -51.515 67.63875 -50.75 66.9375 C-48.55656087 64.50904954 -47.38709042 61.95510568 -46 59 C-44.06374244 55.46422533 -42.21707244 52.4817416 -39 50 C-36 49.5 -36 49.5 -33 50 C-30.1432371 52.18519115 -29.1030171 53.30857889 -28.56640625 56.91015625 C-28.56379886 59.0143213 -28.5638053 61.11849119 -28.56640625 63.22265625 C-28.27516513 66.23401656 -28.27516513 66.23401656 -25.46484375 67.87109375 C-24.65144531 68.24363281 -23.83804688 68.61617188 -23 69 C-23.495 70.98 -23.495 70.98 -24 73 C-25.65 72.67 -27.3 72.34 -29 72 C-29 74.64 -29 77.28 -29 80 C-27.02 80.495 -27.02 80.495 -25 81 C-24.66226563 80.18015625 -24.32453125 79.3603125 -23.9765625 78.515625 C-23.53054687 77.43796875 -23.08453125 76.3603125 -22.625 75.25 C-22.18414062 74.18265625 -21.74328125 73.1153125 -21.2890625 72.015625 C-20.26692415 69.62444074 -19.19786405 67.30616817 -18 65 C-18.61875 64.71125 -19.2375 64.4225 -19.875 64.125 C-22 63 -22 63 -24 61 C-24 59.68 -24 58.36 -24 57 C-20.47930015 57.58678331 -18.28700157 58.35649921 -15 60 C-13.68 53.4 -12.36 46.8 -11 40 C-10.34 40 -9.68 40 -9 40 C-9.19078125 39.41992188 -9.3815625 38.83984375 -9.578125 38.2421875 C-10.86409806 33.71137543 -11.40122899 31.81678759 -9.25 27.4375 C-8.5075 26.633125 -7.765 25.82875 -7 25 C-6.34 25 -5.68 25 -5 25 C-4.505 23.515 -4.505 23.515 -4 22 C-3.01 21.505 -3.01 21.505 -2 21 C-1.96241577 20.09906616 -1.96241577 20.09906616 -1.92407227 19.17993164 C-1.8084472 16.47388563 -1.68557064 13.76821717 -1.5625 11.0625 C-1.52318359 10.11697266 -1.48386719 9.17144531 -1.44335938 8.19726562 C-1.40146484 7.29814453 -1.35957031 6.39902344 -1.31640625 5.47265625 C-1.27974854 4.64000244 -1.24309082 3.80734863 -1.20532227 2.94946289 C-1 1 -1 1 0 0 Z " fill="#000000" transform="translate(156,1)"/>
<path d="M0 0 C7.37313604 -0.30589549 11.77000933 0.55257504 17.36816406 5.54785156 C20.94724893 9.70172324 23.10374092 13.1680297 23.12988281 18.72753906 C22.03043914 23.28985634 18.86231195 25.97138359 15.55566406 29.11035156 C14.55897321 30.26208322 13.57737962 31.42722689 12.61816406 32.61035156 C11.93753906 33.43535156 11.25691406 34.26035156 10.55566406 35.11035156 C11.17054688 35.50867188 11.78542969 35.90699219 12.41894531 36.31738281 C13.2271875 36.8471875 14.03542969 37.37699219 14.86816406 37.92285156 C15.66867188 38.44492188 16.46917969 38.96699219 17.29394531 39.50488281 C19.29566674 40.92579388 20.97192925 42.23959685 22.55566406 44.11035156 C22.55566406 44.77035156 22.55566406 45.43035156 22.55566406 46.11035156 C23.54566406 46.44035156 24.53566406 46.77035156 25.55566406 47.11035156 C28.68293795 51.53166981 30.55566406 56.6997013 30.55566406 62.11035156 C28.61816406 64.54785156 28.61816406 64.54785156 26.55566406 66.11035156 C22.71480226 65.00076926 20.12839593 64.20042626 17.55566406 61.11035156 C16.78402639 59.52617669 16.05808281 57.91928514 15.36816406 56.29785156 C12.74644632 51.00028032 10.00363226 47.58590831 4.55566406 45.11035156 C1.24857524 44.34183154 -1.9936323 43.86185616 -5.36621094 43.47753906 C-8.91568801 43.05412428 -12.05584914 42.21357982 -15.44433594 41.11035156 C-15.11981445 41.67423584 -14.79529297 42.23812012 -14.4609375 42.8190918 C-13.34214332 45.34067761 -13.18646904 47.02663163 -13.17871094 49.77050781 C-13.17484375 51.08438477 -13.17484375 51.08438477 -13.17089844 52.42480469 C-13.17863281 53.33166016 -13.18636719 54.23851562 -13.19433594 55.17285156 C-13.18660156 56.08357422 -13.17886719 56.99429688 -13.17089844 57.93261719 C-13.17347656 58.80724609 -13.17605469 59.681875 -13.17871094 60.58300781 C-13.1809668 61.379729 -13.18322266 62.1764502 -13.18554688 62.99731445 C-13.44433594 65.11035156 -13.44433594 65.11035156 -15.44433594 68.11035156 C-18.52354726 68.36695251 -20.65570587 68.5046666 -23.44433594 67.11035156 C-23.49332031 65.92957031 -23.54230469 64.74878906 -23.59277344 63.53222656 C-23.66782473 61.9749122 -23.74337154 60.41762166 -23.81933594 58.86035156 C-23.85027344 58.08304688 -23.88121094 57.30574219 -23.91308594 56.50488281 C-24.12278363 52.41577776 -24.58575458 49.76897628 -26.44433594 46.11035156 C-26.75564864 42.71421299 -26.90585382 39.35988853 -27.01074219 35.95410156 C-27.1256728 31.93116641 -27.1256728 31.93116641 -28.45141602 28.19458008 C-29.6634723 25.65036457 -29.68789977 23.82248858 -29.67480469 21.01269531 C-29.67287109 20.04654297 -29.6709375 19.08039062 -29.66894531 18.08496094 C-29.65669922 17.08271484 -29.64445313 16.08046875 -29.63183594 15.04785156 C-29.63119141 14.04173828 -29.63054687 13.035625 -29.62988281 11.99902344 C-29.58499283 4.53232223 -29.58499283 4.53232223 -28.44433594 1.11035156 C-20.83649343 0.73193305 -13.22943672 0.42335334 -5.61523438 0.20507812 C-3.74307691 0.1491498 -1.87108687 0.08447176 0 0 Z M-18.44433594 11.11035156 C-19.64294916 18.87713552 -19.66338936 23.33429606 -15.44433594 30.11035156 C-5.65400559 30.11035156 2.37271537 27.11143292 9.43066406 20.36035156 C10.13191406 19.61785156 10.83316406 18.87535156 11.55566406 18.11035156 C10.58374861 15.29179674 9.66439536 14.18474666 7.18066406 12.48535156 C2.12350063 10.56711716 -2.46374893 10.78809808 -7.81933594 10.92285156 C-8.8415625 10.93638672 -9.86378906 10.94992188 -10.91699219 10.96386719 C-13.42665643 10.9990494 -15.93521684 11.04827617 -18.44433594 11.11035156 Z " fill="#010101" transform="translate(215.4443359375,36.8896484375)"/>
<path d="M0 0 C1.30227539 0.02900391 1.30227539 0.02900391 2.63085938 0.05859375 C8.70071816 0.3613985 12.70779916 1.67294094 17.0625 6 C24.64917306 15.85822097 24.33186949 28.1780705 23.0625 40 C21.55673207 48.35608251 17.61356914 53.69675355 11.0625 59 C6.98582385 61.03833808 1.85615029 60.36110179 -2.625 60.4375 C-3.70201172 60.48326172 -4.77902344 60.52902344 -5.88867188 60.57617188 C-10.99174612 60.6481343 -14.87433003 60.68844256 -18.9609375 57.39453125 C-26.7861303 49.29255163 -29.98607743 38.76287963 -29.84619141 27.72729492 C-29.29802708 19.50749097 -25.88088793 12.49628467 -20.9375 6 C-18.54296875 4.27734375 -18.54296875 4.27734375 -15.9375 3 C-15.04933594 2.443125 -14.16117188 1.88625 -13.24609375 1.3125 C-8.69901456 -0.49130001 -4.82769199 -0.27831484 0 0 Z M-13.6015625 15.984375 C-15.56701344 18.94979221 -16.25431122 21.51573721 -16.9375 25 C-17.2675 25.66 -17.5975 26.32 -17.9375 27 C-18.98061688 33.16387247 -18.21813223 37.28608306 -14.625 42.4375 C-13.43623685 43.99011937 -12.20986561 45.51511937 -10.9375 47 C-10.45539062 47.58007812 -9.97328125 48.16015625 -9.4765625 48.7578125 C-6.88722206 50.84768626 -4.4148268 50.47456307 -1.2109375 50.32421875 C2.63774091 49.77535224 4.26082349 48.73941704 7.0625 46 C10.40990202 40.76727961 14.21022382 34.65087479 13.65234375 28.21484375 C12.22499011 22.85517808 10.09432994 17.64310615 7.0625 13 C-0.39019964 8.81921728 -8.02240036 9.54083562 -13.6015625 15.984375 Z " fill="#010101" transform="translate(37.9375,48)"/>
<path d="M0 0 C0.71607422 -0.00773437 1.43214844 -0.01546875 2.16992188 -0.0234375 C8.99545766 0.00186569 8.99545766 0.00186569 12.0625 2.25 C12.9375 4.6875 12.9375 4.6875 13.0625 7.25 C12.0725 8.735 12.0725 8.735 11.0625 10.25 C7.9375 10.4375 7.9375 10.4375 5.0625 10.25 C5.07035522 11.2541394 5.07035522 11.2541394 5.07836914 12.27856445 C5.09942471 15.37319971 5.1122497 18.46781981 5.125 21.5625 C5.13337891 22.61501953 5.14175781 23.66753906 5.15039062 24.75195312 C5.17159421 31.64311686 4.81921682 38.40030513 4.0625 45.25 C3.4025 45.25 2.7425 45.25 2.0625 45.25 C2.0625 45.91 2.0625 46.57 2.0625 47.25 C2.784375 47.023125 3.50625 46.79625 4.25 46.5625 C7.0625 46.25 7.0625 46.25 9.8125 47.4375 C12.0625 49.25 12.0625 49.25 13.0625 51.1875 C13.0625 54.12602207 12.08710608 55.16421298 10.0625 57.25 C7.55053711 57.7199707 7.55053711 57.7199707 4.58984375 57.67578125 C2.99366211 57.66321289 2.99366211 57.66321289 1.36523438 57.65039062 C0.25470703 57.62138672 -0.85582031 57.59238281 -2 57.5625 C-3.11439453 57.55283203 -4.22878906 57.54316406 -5.37695312 57.53320312 C-13.60049517 57.41850242 -13.60049517 57.41850242 -15.9375 56.25 C-15.9375 53.61 -15.9375 50.97 -15.9375 48.25 C-15.15375 47.96125 -14.37 47.6725 -13.5625 47.375 C-10.42201543 46.02907804 -9.28400371 44.97935396 -7.8203125 41.8984375 C-6.52695487 36.55332235 -6.7286474 31.35121982 -6.8125 25.875 C-6.82152344 24.75738281 -6.83054687 23.63976562 -6.83984375 22.48828125 C-6.86331654 19.74196538 -6.89615272 16.99609528 -6.9375 14.25 C-8.236875 14.105625 -9.53625 13.96125 -10.875 13.8125 C-14.8125 13.375 -14.8125 13.375 -15.9375 12.25 C-16.3125 8.875 -16.3125 8.875 -15.9375 5.25 C-13.625 3.4375 -13.625 3.4375 -10.9375 2.25 C-7.21425349 -0.23216434 -4.3052041 -0.04625107 0 0 Z " fill="#010101" transform="translate(265.9375,50.75)"/>
<path d="M0 0 C3 1 3 1 4 3 C4.04827764 4.34158207 4.03724384 5.68564963 3.9921875 7.02734375 C3.97542969 7.81947266 3.95867187 8.61160156 3.94140625 9.42773438 C3.89723274 11.09723325 3.84518298 12.76654281 3.78515625 14.43554688 C3.76388672 15.62567383 3.76388672 15.62567383 3.7421875 16.83984375 C3.7201123 17.56550537 3.69803711 18.29116699 3.67529297 19.03881836 C4.0912257 21.55098951 5.20274722 22.27105347 7 24 C7 24.99 7 25.98 7 27 C7.66 27 8.32 27 9 27 C9 27.66 9 28.32 9 29 C9.66 29 10.32 29 11 29 C10.67 29.99 10.34 30.98 10 32 C7.9375 32.6875 7.9375 32.6875 6 33 C6 33.99 6 34.98 6 36 C3.75389926 38.29423147 2.41432805 38.95659972 -0.796875 39.29296875 C-1.77140625 39.25816406 -2.7459375 39.22335938 -3.75 39.1875 C-4.73484375 39.16042969 -5.7196875 39.13335937 -6.734375 39.10546875 C-7.48203125 39.07066406 -8.2296875 39.03585938 -9 39 C-9.9697935 36.18759885 -10.74814488 33.92781571 -11 31 C-9.25 27.5 -9.25 27.5 -7 25 C-6.34 25 -5.68 25 -5 25 C-4.67 24.01 -4.34 23.02 -4 22 C-3.34 21.67 -2.68 21.34 -2 21 C-1.97494385 20.39937744 -1.9498877 19.79875488 -1.92407227 19.17993164 C-1.8084472 16.47388563 -1.68557064 13.76821717 -1.5625 11.0625 C-1.52318359 10.11697266 -1.48386719 9.17144531 -1.44335938 8.19726562 C-1.40146484 7.29814453 -1.35957031 6.39902344 -1.31640625 5.47265625 C-1.27974854 4.64000244 -1.24309082 3.80734863 -1.20532227 2.94946289 C-1 1 -1 1 0 0 Z " fill="#070607" transform="translate(156,1)"/>
<path d="M0 0 C0.1875 2.3125 0.1875 2.3125 0 5 C-1.4375 6.5625 -1.4375 6.5625 -3 8 C-3.71447643 10.10332891 -3.71447643 10.10332891 -4 12 C-4.66 12 -5.32 12 -6 12 C-8.20183486 5.63914373 -8.20183486 5.63914373 -7.25 2.625 C-4.99668677 -0.3043072 -3.81460486 0 0 0 Z " fill="#020202" transform="translate(140,105)"/>
<path d="M0 0 C1.68834592 0.60968047 3.35202764 1.28837557 5 2 C6.99620166 2.67795528 8.99538701 3.34733531 11 4 C11 4.33 11 4.66 11 5 C6.38 5 1.76 5 -3 5 C-2.67 3.68 -2.34 2.36 -2 1 C-1.34 0.67 -0.68 0.34 0 0 Z " fill="#010101" transform="translate(179,99)"/>
<path d="M0 0 C2.475 0.495 2.475 0.495 5 1 C5 2.65 5 4.3 5 6 C3.35 6.33 1.7 6.66 0 7 C0 4.69 0 2.38 0 0 Z " fill="#020202" transform="translate(147,112)"/>
<path d="M0 0 C0.99 0.33 1.98 0.66 3 1 C3.05423638 2.91635217 3.09289963 4.83314925 3.125 6.75 C3.14820313 7.81734375 3.17140625 8.8846875 3.1953125 9.984375 C3.00487687 12.92470106 2.52670104 14.52361878 1 17 C-0.0024305 11.65370398 0.15111805 7.37625234 1 2 C0.34 1.67 -0.32 1.34 -1 1 C-0.67 0.67 -0.34 0.34 0 0 Z " fill="#0E0E10" transform="translate(156,1)"/>
<path d="M0 0 C2 1 4 2 6 3 C5.34 4.32 4.68 5.64 4 7 C2.35 6.67 0.7 6.34 -1 6 C-0.67 4.02 -0.34 2.04 0 0 Z " fill="#010101" transform="translate(171,107)"/>
<path d="M0 0 C-1.36983503 3.16115776 -1.9890638 3.9927092 -5 6 C-5.66 5.67 -6.32 5.34 -7 5 C-6.67 3.35 -6.34 1.7 -6 0 C-3 -1 -3 -1 0 0 Z " fill="#010101" transform="translate(187,75)"/>
<path d="M0 0 C2.0625 0.4375 2.0625 0.4375 4 1 C4 2.65 4 4.3 4 6 C2.68 6 1.36 6 0 6 C-0.38218767 4.34385343 -0.71395102 2.67542976 -1 1 C-0.67 0.67 -0.34 0.34 0 0 Z " fill="#010101" transform="translate(159,113)"/>
<path d="M0 0 C0 0.66 0 1.32 0 2 C-2.31 2.33 -4.62 2.66 -7 3 C-7 1.68 -7 0.36 -7 -1 C-3.51418144 -2.2020064 -3.32007656 -2.21338437 0 0 Z " fill="#010101" transform="translate(189,90)"/>
<path d="" fill="#000000" transform="translate(0,0)"/>
<path d="" fill="#000000" transform="translate(0,0)"/>
<path d="" fill="#000000" transform="translate(0,0)"/>
</svg>
