<?xml version="1.0" encoding="UTF-8"?>
<svg version="1.1" xmlns="http://www.w3.org/2000/svg" width="433" height="577">
<path d="M0 0 C0.99 0.33 1.98 0.66 3 1 C3.6875 3.0625 3.6875 3.0625 4 5 C3.34 5 2.68 5 2 5 C2.13854088 8.29201643 2.28707024 11.58350709 2.4375 14.875 C2.47681641 15.81214844 2.51613281 16.74929687 2.55664062 17.71484375 C2.59853516 18.61074219 2.64042969 19.50664062 2.68359375 20.4296875 C2.73858032 21.67081299 2.73858032 21.67081299 2.79467773 22.93701172 C2.88238327 25.06179429 2.88238327 25.06179429 4 27 C5.32 27 6.64 27 8 27 C8.33 26.34 8.66 25.68 9 25 C12.49075975 32.1211499 12.49075975 32.1211499 11 37 C11 37.99 11 38.98 11 40 C6.94568308 41.15837626 4.78187881 40.83691257 1 39 C0.01 39.99 -0.98 40.98 -2 42 C2.47203541 43.11800885 6.42149218 43.4430814 11 43 C13.08216876 40.6450037 13.08216876 40.6450037 14 38 C16.31 38.33 18.62 38.66 21 39 C21.6875 42.3125 21.6875 42.3125 22 46 C20.5625 47.9375 20.5625 47.9375 19 49 C20.485 49.495 20.485 49.495 22 50 C21.67 52.97 21.34 55.94 21 59 C19.68 59 18.36 59 17 59 C17.495 59.433125 17.99 59.86625 18.5 60.3125 C20 62 20 62 20 65 C21.485 65.495 21.485 65.495 23 66 C25.5789093 69.86836395 25.33005051 73.19584589 25.4375 77.6875 C25.96873341 91.23072071 27.5806937 104.09685394 34.75 115.875 C36 118 36 118 36 121 C37.485 121.495 37.485 121.495 39 122 C39.71727778 123.64551962 40.38325228 125.31422289 41 127 C41.66 127.66 42.32 128.32 43 129 C50.00076464 144.43758356 52.83466817 161.40097261 48 178 C43.94001491 186.7882286 38.20782621 193.89290814 30 199 C29.46375 199.53625 28.9275 200.0725 28.375 200.625 C25.06838274 203.93161726 20.81801504 204.60469427 16.375 205.5625 C12.06261619 206.42572431 12.06261619 206.42572431 8 208 C4.98586712 208.26563329 1.96203459 208.23162773 -1.0625 208.25 C-2.29516602 208.2809375 -2.29516602 208.2809375 -3.55273438 208.3125 C-9.54786847 208.35023491 -14.44122766 207.22250328 -20 205 C-20 204.34 -20 203.68 -20 203 C-21.32 203 -22.64 203 -24 203 C-24 202.34 -24 201.68 -24 201 C-24.99 201 -25.98 201 -27 201 C-28.3743291 199.70896357 -29.70896357 198.3743291 -31 197 C-31.66 196.67 -32.32 196.34 -33 196 C-33 195.34 -33 194.68 -33 194 C-33.66 194 -34.32 194 -35 194 C-43.96051518 185.31033163 -50.79814248 175.43046956 -51.3359375 162.7578125 C-51.35957037 160.88031192 -51.37241727 159.00264754 -51.375 157.125 C-51.39949219 156.19558594 -51.42398438 155.26617187 -51.44921875 154.30859375 C-51.47798504 147.43345123 -49.98158982 142.16837912 -47 136 C-46.50185791 134.94449951 -46.50185791 134.94449951 -45.99365234 133.86767578 C-45 132 -45 132 -43 129.5625 C-41.05185916 127.06644455 -40.10963737 124.93261305 -39 122 C-38.01 121.01 -38.01 121.01 -37 120 C-36.67 119.01 -36.34 118.02 -36 117 C-35.34 117 -34.68 117 -34 117 C-33.9175 116.360625 -33.835 115.72125 -33.75 115.0625 C-33.09049982 112.36954095 -32.30070453 110.55998215 -31.0625 108.125 C-27.22637518 99.7578002 -27.11438424 90.18863737 -26.5625 81.125 C-26.19626156 76.01029074 -25.7920953 70.44147978 -23 66 C-20.89453125 65.265625 -20.89453125 65.265625 -19 65 C-19.12375 63.741875 -19.2475 62.48375 -19.375 61.1875 C-19.44460937 60.47980469 -19.51421875 59.77210938 -19.5859375 59.04296875 C-19.92665391 56.70011858 -19.92665391 56.70011858 -22 54 C-21.67 53.01 -21.34 52.02 -21 51 C-20.01 50.505 -20.01 50.505 -19 50 C-19.556875 49.2265625 -19.556875 49.2265625 -20.125 48.4375 C-21.4204796 44.82866397 -20.30086246 42.51232863 -19 39 C-18.34 38.34 -17.68 37.68 -17 37 C-17 36.34 -17 35.68 -17 35 C-14.6875 32.375 -14.6875 32.375 -12 30 C-11.01 30 -10.02 30 -9 30 C-9.495 28.02 -9.495 28.02 -10 26 C-7.03 26.33 -4.06 26.66 -1 27 C-1 26.34 -1 25.68 -1 25 C-1.66 24.67 -2.32 24.34 -3 24 C-2.34 24 -1.68 24 -1 24 C-1.00523682 23.30849854 -1.01047363 22.61699707 -1.01586914 21.90454102 C-1.036575 18.79053648 -1.04963963 15.67654639 -1.0625 12.5625 C-1.07087891 11.47388672 -1.07925781 10.38527344 -1.08789062 9.26367188 C-1.09111328 8.22919922 -1.09433594 7.19472656 -1.09765625 6.12890625 C-1.10289307 5.17056885 -1.10812988 4.21223145 -1.11352539 3.22485352 C-1 1 -1 1 0 0 Z M-2 34 C-2.33 34.66 -2.66 35.32 -3 36 C-2.34 36 -1.68 36 -1 36 C-1.33 35.34 -1.66 34.68 -2 34 Z M-10 36 C-10.99 37.485 -10.99 37.485 -12 39 C-9.69 39 -7.38 39 -5 39 C-5.66 39.66 -6.32 40.32 -7 41 C-7.33 41.66 -7.66 42.32 -8 43 C-9.65 43 -11.3 43 -13 43 C-13 43.33 -13 43.66 -13 44 C-10.36 44 -7.72 44 -5 44 C-3.63420132 40.06045047 -3.63420132 40.06045047 -3 36 C-6.41642759 35.74984127 -6.41642759 35.74984127 -10 36 Z M-3 47 C-3.33 47.99 -3.66 48.98 -4 50 C0.29 50 4.58 50 9 50 C9 49.01 9 48.02 9 47 C5.04 47 1.08 47 -3 47 Z M-3 55 C-4.66621616 55.03874921 -6.33394172 55.0450286 -8 55 C-8 55.66 -8 56.32 -8 57 C-1.91591528 57.19814261 -1.91591528 57.19814261 4 56 C4 55.34 4 54.68 4 54 C0.10540926 53.78918149 0.10540926 53.78918149 -3 55 Z M5 55 C9 56 9 56 9 56 Z M5 60 C4.67 60.66 4.34 61.32 4 62 C5.65 62 7.3 62 9 62 C7.68 61.34 6.36 60.68 5 60 Z M-9 61 C-8.67 62.32 -8.34 63.64 -8 65 C-5.69 65 -3.38 65 -1 65 C-0.67 64.01 -0.34 63.02 0 62 C-1.04437265 60.72620721 -1.04437265 60.72620721 -3.375 60.9375 C-4.24125 60.958125 -5.1075 60.97875 -6 61 C-6.99 61 -7.98 61 -9 61 Z M3 70 C2.67 71.32 2.34 72.64 2 74 C1.34 74 0.68 74 0 74 C0 74.66 0 75.32 0 76 C0 77 0 77 -1 80 C0.485 80.99 0.485 80.99 2 82 C4.34287418 79.32752366 4.34287418 79.32752366 5 76 C5.639375 75.7525 6.27875 75.505 6.9375 75.25 C9.18741541 74.18437567 9.18741541 74.18437567 9.75 71.875 C9.8325 71.25625 9.915 70.6375 10 70 C7.69 70 5.38 70 3 70 Z M-5 83 C-4 85 -4 85 -4 85 Z M-6 87 C-5.34 87.66 -4.68 88.32 -4 89 C-4 88.34 -4 87.68 -4 87 C-4.66 87 -5.32 87 -6 87 Z M-6 90 C-6 91.65 -6 93.3 -6 95 C-5.34 93.68 -4.68 92.36 -4 91 C-4.66 90.67 -5.32 90.34 -6 90 Z M-2 97 C-2.99 98.98 -3.98 100.96 -5 103 C-4.01 103.495 -4.01 103.495 -3 104 C-2.34 103.67 -1.68 103.34 -1 103 C-0.9175 103.598125 -0.835 104.19625 -0.75 104.8125 C0.21576779 107.62932273 1.48868567 108.47799132 4 110 C4.66 110 5.32 110 6 110 C6 109.34 6 108.68 6 108 C5.06414062 107.64808594 5.06414062 107.64808594 4.109375 107.2890625 C1.39744059 105.63176925 1.11024003 104.3858401 0.25 101.375 C0.00765625 100.55773437 -0.2346875 99.74046875 -0.484375 98.8984375 C-0.65453125 98.27195312 -0.8246875 97.64546875 -1 97 C-1.33 97 -1.66 97 -2 97 Z M2.25 98.5 C1.8375 98.995 1.425 99.49 1 100 C3.62113708 100 5.50935112 99.68707555 8 99 C8 98.34 8 97.68 8 97 C4.12202338 96.56613908 4.12202338 96.56613908 2.25 98.5 Z M9 97 C10 99 10 99 10 99 Z M11 98 C9.9673198 100.78823655 9.95490707 101.8677274 10.9375 104.75 C11.288125 105.4925 11.63875 106.235 12 107 C12.66 106.67 13.32 106.34 14 106 C13.37240135 103.07120629 12.41377341 100.63904371 11 98 Z M-6 103 C-5 105 -5 105 -5 105 Z M13.4375 108.5 C12.2309375 109.7375 12.2309375 109.7375 11 111 C11.33 111.99 11.66 112.98 12 114 C12 113.34 12 112.68 12 112 C13.32 111.67 14.64 111.34 16 111 C16 110.34 16 109.68 16 109 C16.66 109 17.32 109 18 109 C17.67 108.01 17.34 107.02 17 106 C15.52263018 105.88361269 15.52263018 105.88361269 13.4375 108.5 Z M-7 107 C-9.29811043 112.74527607 -9.98807394 118.03577817 -8 124 C-7.01 123.67 -6.02 123.34 -5 123 C-4.19787372 121.12612784 -4.19787372 121.12612784 -3.8125 118.9375 C-3.65394531 118.20402344 -3.49539062 117.47054687 -3.33203125 116.71484375 C-3.22246094 116.14894531 -3.11289063 115.58304688 -3 115 C-0.33333333 115 2.33333333 115 5 115 C5 114.34 5 113.68 5 113 C4.34 113 3.68 113 3 113 C3 112.34 3 111.68 3 111 C1.906875 111.0825 0.81375 111.165 -0.3125 111.25 C-4 111 -4 111 -5.9375 109 C-6.288125 108.34 -6.63875 107.68 -7 107 Z M7 113 C7 113.66 7 114.32 7 115 C7.66 115 8.32 115 9 115 C9 114.34 9 113.68 9 113 C8.34 113 7.68 113 7 113 Z M-3 127 C-3.33 127.99 -3.66 128.98 -4 130 C-3.34 130.66 -2.68 131.32 -2 132 C-0.62437146 130.71034824 0.70766393 129.37310707 2 128 C2 127.34 2 126.68 2 126 C-0.21081851 125.89459074 -0.21081851 125.89459074 -3 127 Z M4 127 C5 129 5 129 5 129 Z M11 127 C10.67 128.32 10.34 129.64 10 131 C9.01 130.01 8.02 129.02 7 128 C7 131.69418201 8.28179295 133.77836178 10 137 C10.66 137 11.32 137 12 137 C14.1387261 133.79191085 14.47730962 132.72301503 14 129 C13.01 128.34 12.02 127.68 11 127 Z M-8 132 C-8 132.66 -8 133.32 -8 134 C-7.34 133.67 -6.68 133.34 -6 133 C-6.66 132.67 -7.32 132.34 -8 132 Z M-1 132 C-1.33 132.66 -1.66 133.32 -2 134 C-0.02 134.99 -0.02 134.99 2 136 C2 135.01 2 134.02 2 133 C1.01 132.67 0.02 132.34 -1 132 Z M-9 136 C-9 138.97 -9 141.94 -9 145 C-8.34 145 -7.68 145 -7 145 C-7 142.36 -7 139.72 -7 137 C-7.66 136.67 -8.32 136.34 -9 136 Z M-10 155 C-9 157 -9 157 -9 157 Z M-9 157 C-8.67 157.66 -8.34 158.32 -8 159 C-7.67 158.34 -7.34 157.68 -7 157 C-7.66 157 -8.32 157 -9 157 Z M-6 158 C-6.33 158.66 -6.66 159.32 -7 160 C-6.34 160 -5.68 160 -5 160 C-5.33 159.34 -5.66 158.68 -6 158 Z " fill="#090909" transform="translate(218,175)"/>
<path d="M0 0 C0.99 0.33 1.98 0.66 3 1 C3.6875 3.0625 3.6875 3.0625 4 5 C3.34 5 2.68 5 2 5 C2.13854088 8.29201643 2.28707024 11.58350709 2.4375 14.875 C2.47681641 15.81214844 2.51613281 16.74929687 2.55664062 17.71484375 C2.59853516 18.61074219 2.64042969 19.50664062 2.68359375 20.4296875 C2.72025146 21.25710449 2.75690918 22.08452148 2.79467773 22.93701172 C2.88238327 25.06179429 2.88238327 25.06179429 4 27 C5.32 27 6.64 27 8 27 C8.33 26.34 8.66 25.68 9 25 C12.49075975 32.1211499 12.49075975 32.1211499 11 37 C11 37.99 11 38.98 11 40 C6.94568308 41.15837626 4.78187881 40.83691257 1 39 C0.01 39.99 -0.98 40.98 -2 42 C2.47203541 43.11800885 6.42149218 43.4430814 11 43 C13.08216876 40.6450037 13.08216876 40.6450037 14 38 C16.31 38.33 18.62 38.66 21 39 C21.495 42.465 21.495 42.465 22 46 C20.02 46.495 20.02 46.495 18 47 C17.67 46.34 17.34 45.68 17 45 C16.33613281 45.50144531 15.67226562 46.00289062 14.98828125 46.51953125 C11.22666615 48.3831288 8.23182183 48.12482858 4.1875 47.6875 C3.49462891 47.62626953 2.80175781 47.56503906 2.08789062 47.50195312 C0.39050178 47.34977344 -1.30501549 47.17696065 -3 47 C-2.67 47.66 -2.34 48.32 -2 49 C-1.67 49.66 -1.34 50.32 -1 51 C-3.475 51.495 -3.475 51.495 -6 52 C-6 52.33 -6 52.66 -6 53 C-4.02 53.33 -2.04 53.66 0 54 C-3 56 -3 56 -5.6875 55.625 C-6.450625 55.41875 -7.21375 55.2125 -8 55 C-8 55.66 -8 56.32 -8 57 C-6.68 57.33 -5.36 57.66 -4 58 C-4.99 58.495 -4.99 58.495 -6 59 C-4.35 59.33 -2.7 59.66 -1 60 C-1 60.33 -1 60.66 -1 61 C-2.134375 61.268125 -3.26875 61.53625 -4.4375 61.8125 C-6.2009375 62.4003125 -6.2009375 62.4003125 -8 63 C-8.33 63.99 -8.66 64.98 -9 66 C-11.475 66.495 -11.475 66.495 -14 67 C-14.33 66.01 -14.66 65.02 -15 64 C-17.16666667 64.83333333 -17.16666667 64.83333333 -18 67 C-20.0625 67.625 -20.0625 67.625 -22 68 C-22.99 71.465 -22.99 71.465 -24 75 C-24.33 75 -24.66 75 -25 75 C-24.67 72.36 -24.34 69.72 -24 67 C-21.525 66.01 -21.525 66.01 -19 65 C-19.12375 63.741875 -19.2475 62.48375 -19.375 61.1875 C-19.44460937 60.47980469 -19.51421875 59.77210938 -19.5859375 59.04296875 C-19.92665391 56.70011858 -19.92665391 56.70011858 -22 54 C-21.67 53.01 -21.34 52.02 -21 51 C-20.01 50.505 -20.01 50.505 -19 50 C-19.556875 49.2265625 -19.556875 49.2265625 -20.125 48.4375 C-21.4204796 44.82866397 -20.30086246 42.51232863 -19 39 C-18.34 38.34 -17.68 37.68 -17 37 C-17 36.34 -17 35.68 -17 35 C-14.6875 32.375 -14.6875 32.375 -12 30 C-11.01 30 -10.02 30 -9 30 C-9.33 28.68 -9.66 27.36 -10 26 C-7.03 26.33 -4.06 26.66 -1 27 C-1 26.34 -1 25.68 -1 25 C-1.66 24.67 -2.32 24.34 -3 24 C-2.34 24 -1.68 24 -1 24 C-1.00785522 22.9627478 -1.00785522 22.9627478 -1.01586914 21.90454102 C-1.036575 18.79053648 -1.04963963 15.67654639 -1.0625 12.5625 C-1.07087891 11.47388672 -1.07925781 10.38527344 -1.08789062 9.26367188 C-1.09272461 7.71196289 -1.09272461 7.71196289 -1.09765625 6.12890625 C-1.10551147 4.69140015 -1.10551147 4.69140015 -1.11352539 3.22485352 C-1 1 -1 1 0 0 Z M-2 34 C-2.33 34.66 -2.66 35.32 -3 36 C-2.34 36 -1.68 36 -1 36 C-1.33 35.34 -1.66 34.68 -2 34 Z M-10 36 C-10.99 37.485 -10.99 37.485 -12 39 C-9.69 39 -7.38 39 -5 39 C-5.66 39.66 -6.32 40.32 -7 41 C-7.33 41.66 -7.66 42.32 -8 43 C-9.65 43 -11.3 43 -13 43 C-13 43.33 -13 43.66 -13 44 C-10.36 44 -7.72 44 -5 44 C-3.63420132 40.06045047 -3.63420132 40.06045047 -3 36 C-6.41642759 35.74984127 -6.41642759 35.74984127 -10 36 Z " fill="#1E1E1E" transform="translate(218,175)"/>
<path d="M0 0 C0.99 0 1.98 0 3 0 C3.20496094 0.63808594 3.40992188 1.27617187 3.62109375 1.93359375 C3.89050781 2.75988281 4.15992188 3.58617187 4.4375 4.4375 C4.70433594 5.26121094 4.97117188 6.08492188 5.24609375 6.93359375 C5.82155494 8.96219588 5.82155494 8.96219588 7 10 C7.66 9.34 8.32 8.68 9 8 C9.66 8.66 10.32 9.32 11 10 C9.71937515 11.7074998 8.38232443 13.37373596 7 15 C6.34 15 5.68 15 5 15 C4.67 16.32 4.34 17.64 4 19 C3.67 18.34 3.34 17.68 3 17 C2.34 17 1.68 17 1 17 C1.33 17.99 1.66 18.98 2 20 C-0.31 20 -2.62 20 -5 20 C-3.68 19.67 -2.36 19.34 -1 19 C-1 18.34 -1 17.68 -1 17 C-1.66 17 -2.32 17 -3 17 C-3 16.34 -3 15.68 -3 15 C-4.258125 15.226875 -5.51625 15.45375 -6.8125 15.6875 C-10.70390949 16.17047635 -10.70390949 16.17047635 -13.0625 14.8125 C-14 13 -14 13 -13.6875 10.8125 C-13.3471875 9.9153125 -13.3471875 9.9153125 -13 9 C-12.34 9 -11.68 9 -11 9 C-10.67 8.34 -10.34 7.68 -10 7 C-9.01 7 -8.02 7 -7 7 C-5.98133771 8.65532623 -4.98189187 10.32260138 -4 12 C-3.01 12.33 -2.02 12.66 -1 13 C-1.33 12.67 -1.66 12.34 -2 12 C-3.33333333 10.66666667 -4.66666667 9.33333333 -6 8 C-5 5 -5 5 -2 3 C-0.68 3 0.64 3 2 3 C2 2.34 2 1.68 2 1 C1.34 0.67 0.68 0.34 0 0 Z " fill="#393939" transform="translate(224,271)"/>
<path d="M0 0 C0.763125 0.185625 1.52625 0.37125 2.3125 0.5625 C5.08967375 1.22819173 5.08967375 1.22819173 8 0 C10.24476772 0.39975316 12.47421022 0.88965599 14.6875 1.4375 C15.86699219 1.72496094 17.04648438 2.01242188 18.26171875 2.30859375 C19.61716797 2.65083984 19.61716797 2.65083984 21 3 C18 5 18 5 15.3125 4.625 C14.1678125 4.315625 14.1678125 4.315625 13 4 C13 4.66 13 5.32 13 6 C14.32 6.33 15.64 6.66 17 7 C16.01 7.495 16.01 7.495 15 8 C17.475 8.495 17.475 8.495 20 9 C20 9.33 20 9.66 20 10 C18.2984375 10.4021875 18.2984375 10.4021875 16.5625 10.8125 C15.386875 11.204375 14.21125 11.59625 13 12 C12.67 12.99 12.34 13.98 12 15 C10.35 15.33 8.7 15.66 7 16 C6.67 15.01 6.34 14.02 6 13 C3.83333333 13.83333333 3.83333333 13.83333333 3 16 C0.9375 16.625 0.9375 16.625 -1 17 C-1.66 19.31 -2.32 21.62 -3 24 C-3.33 24 -3.66 24 -4 24 C-3.67 21.36 -3.34 18.72 -3 16 C-1.35 15.34 0.3 14.68 2 14 C1.87625 12.741875 1.7525 11.48375 1.625 10.1875 C1.55539063 9.47980469 1.48578125 8.77210938 1.4140625 8.04296875 C1.07334609 5.70011858 1.07334609 5.70011858 -1 3 C-0.67 2.01 -0.34 1.02 0 0 Z M1 2 C1.33 2.66 1.66 3.32 2 4 C2.66 4 3.32 4 4 4 C4 3.34 4 2.68 4 2 C3.01 2 2.02 2 1 2 Z " fill="#232323" transform="translate(197,226)"/>
<path d="M0 0 C1.65 0 3.3 0 5 0 C5.33 0.99 5.66 1.98 6 3 C8.97 3.495 8.97 3.495 12 4 C11 7 11 7 9 8 C11.97 8.495 11.97 8.495 15 9 C13.68 11.64 12.36 14.28 11 17 C9.55625 16.979375 8.1125 16.95875 6.625 16.9375 C3.17771295 16.84827854 3.17771295 16.84827854 0 18 C0 17.34 0 16.68 0 16 C-1.9600281 14.36323743 -1.9600281 14.36323743 -4 13 C-3.71758359 11.53984709 -3.42373386 10.08190207 -3.125 8.625 C-2.96257812 7.81289062 -2.80015625 7.00078125 -2.6328125 6.1640625 C-2 4 -2 4 0 2 C0 1.34 0 0.68 0 0 Z M-3 18 C-2.01 18.33 -1.02 18.66 0 19 C-0.99 19.33 -1.98 19.66 -3 20 C-3 19.34 -3 18.68 -3 18 Z " fill="#1C1C1C" transform="translate(201,210)"/>
<path d="M0 0 C0.625 1.875 0.625 1.875 1 4 C0.34 4.66 -0.32 5.32 -1 6 C3.47203541 7.11800885 7.42149218 7.4430814 12 7 C14.08216876 4.6450037 14.08216876 4.6450037 15 2 C17.31 2.33 19.62 2.66 22 3 C22.33 5.31 22.66 7.62 23 10 C21.68 10.33 20.36 10.66 19 11 C18.67 10.34 18.34 9.68 18 9 C17.33613281 9.50144531 16.67226562 10.00289062 15.98828125 10.51953125 C12.22666615 12.3831288 9.23182183 12.12482858 5.1875 11.6875 C4.49462891 11.62626953 3.80175781 11.56503906 3.08789062 11.50195312 C1.39050178 11.34977344 -0.30501549 11.17696065 -2 11 C-1.67 11.66 -1.34 12.32 -1 13 C-0.67 13.66 -0.34 14.32 0 15 C-1.32 15 -2.64 15 -4 15 C-3.835 14.236875 -3.67 13.47375 -3.5 12.6875 C-2.73321954 8.56605505 -3.2726081 5.09157943 -4 1 C-2 0 -2 0 0 0 Z " fill="#262626" transform="translate(217,211)"/>
<path d="M0 0 C4.81823105 0.33615565 8.67232747 2.00927064 13 4 C13 5.65 13 7.3 13 9 C11.35 9.66 9.7 10.32 8 11 C8 10.34 8 9.68 8 9 C6.88625 8.87625 5.7725 8.7525 4.625 8.625 C1 8 1 8 -1 6 C-1.75 4 -1.75 4 -2 2 C-1.34 1.34 -0.68 0.68 0 0 Z " fill="#363636" transform="translate(275,338)"/>
<path d="M0 0 C-0.3176372 3.22652525 -0.68203931 4.67830592 -2.99609375 7.01953125 C-4.20458984 7.90705078 -4.20458984 7.90705078 -5.4375 8.8125 C-6.24058594 9.41707031 -7.04367187 10.02164062 -7.87109375 10.64453125 C-10 12 -10 12 -12 12 C-12.625 9.6875 -12.625 9.6875 -13 7 C-12.34 6.01 -11.68 5.02 -11 4 C-10.34 4 -9.68 4 -9 4 C-8.566875 3.0409375 -8.566875 3.0409375 -8.125 2.0625 C-6.00428289 -1.82548136 -3.86823244 -0.91616031 0 0 Z " fill="#2E2E2E" transform="translate(284,292)"/>
<path d="M0 0 C0.99 0.33 1.98 0.66 3 1 C3.6875 3.0625 3.6875 3.0625 4 5 C3.34 5 2.68 5 2 5 C2 12.26 2 19.52 2 27 C1.01 27 0.02 27 -1 27 C-1 26.34 -1 25.68 -1 25 C-1.66 24.67 -2.32 24.34 -3 24 C-2.34 24 -1.68 24 -1 24 C-1.00523682 23.30849854 -1.01047363 22.61699707 -1.01586914 21.90454102 C-1.036575 18.79053648 -1.04963963 15.67654639 -1.0625 12.5625 C-1.07087891 11.47388672 -1.07925781 10.38527344 -1.08789062 9.26367188 C-1.09111328 8.22919922 -1.09433594 7.19472656 -1.09765625 6.12890625 C-1.10289307 5.17056885 -1.10812988 4.21223145 -1.11352539 3.22485352 C-1 1 -1 1 0 0 Z " fill="#535353" transform="translate(218,175)"/>
<path d="M0 0 C3.875 2.625 3.875 2.625 5 6 C5.66 6.66 6.32 7.32 7 8 C6.625 11.125 6.625 11.125 6 14 C3.03 13.505 3.03 13.505 0 13 C-1.27253436 9.35206816 -2.32829194 5.8063457 -3 2 C-2.01 1.34 -1.02 0.68 0 0 Z " fill="#2D2D2D" transform="translate(250,380)"/>
<path d="M0 0 C1.32 0 2.64 0 4 0 C4 0.66 4 1.32 4 2 C3.01 2 2.02 2 1 2 C1.66 2.33 2.32 2.66 3 3 C3.625 5.0625 3.625 5.0625 4 7 C3.34 7 2.68 7 2 7 C2.66 7.66 3.32 8.32 4 9 C4.99 9 5.98 9 7 9 C7 9.66 7 10.32 7 11 C8.65 10.67 10.3 10.34 12 10 C12 11.65 12 13.3 12 15 C10.35 15.33 8.7 15.66 7 16 C6.67 15.01 6.34 14.02 6 13 C3.83333333 13.83333333 3.83333333 13.83333333 3 16 C0.9375 16.625 0.9375 16.625 -1 17 C-1.66 19.31 -2.32 21.62 -3 24 C-3.33 24 -3.66 24 -4 24 C-3.67 21.36 -3.34 18.72 -3 16 C-1.35 15.34 0.3 14.68 2 14 C1.87625 12.741875 1.7525 11.48375 1.625 10.1875 C1.55539063 9.47980469 1.48578125 8.77210938 1.4140625 8.04296875 C1.07334609 5.70011858 1.07334609 5.70011858 -1 3 C-0.67 2.01 -0.34 1.02 0 0 Z " fill="#5B5B5B" transform="translate(197,226)"/>
<path d="M0 0 C2.93788301 1.43478007 5.21136643 3.19009979 7.6875 5.3125 C7.3575 6.6325 7.0275 7.9525 6.6875 9.3125 C2.7382432 8.76144091 -0.66170174 7.92314629 -4.3125 6.3125 C-4.3125 4.3325 -4.3125 2.3525 -4.3125 0.3125 C-2.3125 -0.6875 -2.3125 -0.6875 0 0 Z " fill="#2A2A2A" transform="translate(170.3125,277.6875)"/>
<path d="M0 0 C0.625 1.875 0.625 1.875 1 4 C0.34 4.66 -0.32 5.32 -1 6 C3.62730711 7.0448758 8.28853878 7.51756279 13 8 C12.67 9.32 12.34 10.64 12 12 C5.07 11.505 5.07 11.505 -2 11 C-1.67 11.66 -1.34 12.32 -1 13 C-0.67 13.66 -0.34 14.32 0 15 C-1.32 15 -2.64 15 -4 15 C-3.835 14.236875 -3.67 13.47375 -3.5 12.6875 C-2.73321954 8.56605505 -3.2726081 5.09157943 -4 1 C-2 0 -2 0 0 0 Z " fill="#464646" transform="translate(217,211)"/>
<path d="M0 0 C0.99 0.33 1.98 0.66 3 1 C3.4171331 4.54563138 2.97671748 6.04323897 1.25 9.25 C-1 12 -1 12 -3.25 12.875 C-3.8275 12.91625 -4.405 12.9575 -5 13 C-6.3125 10.9375 -6.3125 10.9375 -7 8 C-5.37166722 4.68043746 -3.34352389 1.67176194 0 0 Z " fill="#383838" transform="translate(255,268)"/>
<path d="M0 0 C3.96 0.33 7.92 0.66 12 1 C12.33 2.65 12.66 4.3 13 6 C12.67 6.33 12.34 6.66 12 7 C7.26455717 6.60537976 3.34057042 6.03464238 -1 4 C-0.67 2.68 -0.34 1.36 0 0 Z " fill="#3C3C3C" transform="translate(150,310)"/>
<path d="M0 0 C1.38226016 2.76452033 1.09525387 5.0461363 1.0625 8.125 C1.05347656 9.22070312 1.04445312 10.31640625 1.03515625 11.4453125 C1.02355469 12.28835938 1.01195312 13.13140625 1 14 C-0.65 14 -2.3 14 -4 14 C-4.8723412 11.00519083 -5.10829766 8.36424089 -5.0625 5.25 C-5.05347656 4.45078125 -5.04445312 3.6515625 -5.03515625 2.828125 C-5.02355469 2.22484375 -5.01195312 1.6215625 -5 1 C-3 0 -3 0 0 0 Z " fill="#2D2D2D" transform="translate(209,387)"/>
<path d="M0 0 C0.33 1.65 0.66 3.3 1 5 C-0.45505358 5.52992692 -1.91418127 6.0486789 -3.375 6.5625 C-4.59316406 6.99755859 -4.59316406 6.99755859 -5.8359375 7.44140625 C-8 8 -8 8 -10 7 C-10 5.35 -10 3.7 -10 2 C-6.5980513 -0.09350689 -3.94727588 -0.17942163 0 0 Z " fill="#333333" transform="translate(164,356)"/>
<path d="M0 0 C1.32 0 2.64 0 4 0 C5.625 2.375 5.625 2.375 7 5 C7.66 5.66 8.32 6.32 9 7 C8.67 7.99 8.34 8.98 8 10 C8 9.34 8 8.68 8 8 C6.741875 8.226875 5.48375 8.45375 4.1875 8.6875 C0.29609051 9.17047635 0.29609051 9.17047635 -2.0625 7.8125 C-3 6 -3 6 -2.6875 3.8125 C-2.460625 3.214375 -2.23375 2.61625 -2 2 C-1.34 2 -0.68 2 0 2 C0 1.34 0 0.68 0 0 Z " fill="#494949" transform="translate(213,278)"/>
<path d="M0 0 C0.99 0.33 1.98 0.66 3 1 C3.6875 3.0625 3.6875 3.0625 4 5 C3.34 5 2.68 5 2 5 C1.67 11.6 1.34 18.2 1 25 C0.67 25 0.34 25 0 25 C-0.19585353 21.02119772 -0.3802867 17.04194844 -0.5625 13.0625 C-0.61857422 11.92619141 -0.67464844 10.78988281 -0.73242188 9.61914062 C-0.78076172 8.53955078 -0.82910156 7.45996094 -0.87890625 6.34765625 C-0.9260376 5.34742432 -0.97316895 4.34719238 -1.02172852 3.31665039 C-1 1 -1 1 0 0 Z " fill="#181818" transform="translate(218,175)"/>
<path d="M0 0 C0.625 1.875 0.625 1.875 1 4 C0.34 4.66 -0.32 5.32 -1 6 C1.31 6.66 3.62 7.32 6 8 C6 8.33 6 8.66 6 9 C2.625 9.125 2.625 9.125 -1 9 C-3.5654594 6.4345406 -3.54046087 4.52313332 -4 1 C-2 0 -2 0 0 0 Z " fill="#606060" transform="translate(217,211)"/>
<path d="M0 0 C2.97 0.495 2.97 0.495 6 1 C1.04087193 6.13623978 1.04087193 6.13623978 -2 8 C-2.99 7.67 -3.98 7.34 -5 7 C-3.6875 5.5 -3.6875 5.5 -2 4 C-1.01 4 -0.02 4 1 4 C0.67 2.68 0.34 1.36 0 0 Z " fill="#3E3E3E" transform="translate(208,201)"/>
<path d="M0 0 C0.99 0.33 1.98 0.66 3 1 C3.33 3.31 3.66 5.62 4 8 C3.01 8.33 2.02 8.66 1 9 C0.67 6.03 0.34 3.06 0 0 Z " fill="#6B6B6B" transform="translate(222,301)"/>
<path d="M0 0 C0.33 0 0.66 0 1 0 C1.103125 1.093125 1.20625 2.18625 1.3125 3.3125 C1.97307727 6.85559629 2.2027092 7.93243723 5 10 C0.25 9.25 0.25 9.25 -2 7 C-1.34 4.69 -0.68 2.38 0 0 Z " fill="#6E6E6E" transform="translate(213,292)"/>
<path d="M0 0 C0.33 0.66 0.66 1.32 1 2 C-0.32 2 -1.64 2 -3 2 C-2.01 2.99 -1.02 3.98 0 5 C-0.33 5.99 -0.66 6.98 -1 8 C-2.5 6.75 -2.5 6.75 -4 5 C-4 3.68 -4 2.36 -4 1 C-2.68 0.67 -1.36 0.34 0 0 Z " fill="#6D6D6D" transform="translate(238,232)"/>
<path d="M0 0 C0.99 0.66 1.98 1.32 3 2 C1.68 3.32 0.36 4.64 -1 6 C-1.66 5.67 -2.32 5.34 -3 5 C-3 3 -3 3 -1.5 1.375 C-1.005 0.92125 -0.51 0.4675 0 0 Z " fill="#737373" transform="translate(232,279)"/>
<path d="" fill="#FFFFFF" transform="translate(0,0)"/>
<path d="" fill="#FFFFFF" transform="translate(0,0)"/>
<path d="" fill="#FFFFFF" transform="translate(0,0)"/>
</svg>
