<?xml version="1.0" encoding="UTF-8"?>
<svg version="1.1" xmlns="http://www.w3.org/2000/svg" width="290" height="125">
<path d="M0 0 C1.86771933 1.39557241 3.72841946 2.80058735 5.58203125 4.21484375 C12.1078136 8.87209274 18.8660168 11.11033512 26.8125 11.546875 C44.16497609 12.60887455 59.129379 15.49895543 75.43041992 21.44189453 C82.73261776 24.06914771 90.14271428 26.08735757 97.69970703 27.84716797 C108.09310761 30.44794966 114.91726097 35.76152561 120.90542603 44.49957275 C122.45542629 47.45461877 122.67647543 49.22194725 122.68505859 52.53417969 C122.69451508 53.58587341 122.70397156 54.63756714 122.7137146 55.72113037 C122.70460556 57.41184662 122.70460556 57.41184662 122.6953125 59.13671875 C122.69818268 60.30688538 122.70105286 61.477052 122.70401001 62.68267822 C122.70604995 65.15727217 122.70052504 67.63188228 122.68798828 70.10644531 C122.67199226 73.87472103 122.68781056 77.64191471 122.70703125 81.41015625 C122.70504768 83.81901277 122.70120165 86.22786861 122.6953125 88.63671875 C122.70138519 89.75576599 122.70745789 90.87481323 122.7137146 92.027771 C122.64477881 99.7863138 121.98700538 106.69360469 117.109375 112.96484375 C109.2427252 119.08334915 102.99589701 119.80671893 93.234375 119.65234375 C92.03224365 119.64170898 90.8301123 119.63107422 89.59155273 119.62011719 C80.56323362 119.4274415 72.80915137 118.28232363 64.296875 115.15234375 C51.21163821 110.3882231 42.74997154 110.63098892 29.45581055 114.15087891 C0.67721087 121.59685014 -30.02113838 121.59347257 -58.515625 112.90234375 C-71.70089473 108.97044894 -81.23975261 112.62443498 -93.70117188 117.39624023 C-97.82709584 118.95453127 -100.96393224 119.27390876 -105.37768555 119.26586914 C-106.05112 119.26601517 -106.72455444 119.26616119 -107.418396 119.26631165 C-109.64224479 119.2656155 -111.86600961 119.25783707 -114.08984375 119.25 C-115.63255264 119.24813476 -117.17526211 119.24671136 -118.7179718 119.24571228 C-122.77696368 119.24189544 -126.83591973 119.23207226 -130.89489746 119.2210083 C-135.03734859 119.21077627 -139.1798055 119.20621082 -143.32226562 119.20117188 C-151.44923518 119.19044926 -159.57617563 119.17338282 -167.703125 119.15234375 C-167.88915139 109.67691471 -168.03096472 100.20212183 -168.11762238 90.72525978 C-168.1592318 86.32382972 -168.21559152 81.92365619 -168.30664062 77.52294922 C-168.39408678 73.26937038 -168.44150608 69.01699357 -168.46214294 64.76258469 C-168.47683302 63.14624498 -168.5055203 61.52996512 -168.54896545 59.91414261 C-168.78569744 50.7377945 -168.45670214 44.1453479 -161.85290527 37.07211304 C-146.75019489 23.58528376 -127.59136167 24.27289705 -108.39648438 25.27246094 C-99.29717652 25.95209525 -90.62971745 27.98200216 -81.87817383 30.4753418 C-70.1886705 33.67730644 -59.50070224 32.39514313 -48.78125 26.5625 C-42.1182538 22.11109152 -37.63335303 16.71148815 -32.9921875 10.30078125 C-27.79104094 3.14698581 -23.44291124 -0.82885841 -15.328125 -4.28515625 C-9.25502808 -5.22753336 -5.02012419 -3.43138546 0 0 Z " fill="#F2F2F2" transform="translate(167.703125,5.84765625)"/>
<path d="M0 0 C6.96966738 1.82810948 11.57869707 4.70862371 17.28515625 9.0625 C23.8109386 13.71974899 30.5691418 15.95799137 38.515625 16.39453125 C55.86810109 17.4565308 70.832504 20.34661168 87.13354492 26.28955078 C94.43574276 28.91680396 101.84583928 30.93501382 109.40283203 32.69482422 C119.79623261 35.29560591 126.62038597 40.60918186 132.60855103 49.347229 C134.15855129 52.30227502 134.37960043 54.0696035 134.38818359 57.38183594 C134.39764008 58.43352966 134.40709656 59.48522339 134.4168396 60.56878662 C134.40773056 62.25950287 134.40773056 62.25950287 134.3984375 63.984375 C134.40130768 65.15454163 134.40417786 66.32470825 134.40713501 67.53033447 C134.40917495 70.00492842 134.40365004 72.47953853 134.39111328 74.95410156 C134.37511726 78.72237728 134.39093556 82.48957096 134.41015625 86.2578125 C134.40817268 88.66666902 134.40432665 91.07552486 134.3984375 93.484375 C134.40451019 94.60342224 134.41058289 95.72246948 134.4168396 96.87542725 C134.34790381 104.63397005 133.69013038 111.54126094 128.8125 117.8125 C120.9458502 123.9310054 114.69902201 124.65437518 104.9375 124.5 C103.73536865 124.48936523 102.5332373 124.47873047 101.29467773 124.46777344 C92.26635862 124.27509775 84.51227637 123.12997988 76 120 C62.91476321 115.23587935 54.45309654 115.47864517 41.15893555 118.99853516 C12.38033587 126.44450639 -18.31801338 126.44112882 -46.8125 117.75 C-59.99776973 113.81810519 -69.53662761 117.47209123 -81.99804688 122.24389648 C-86.12397084 123.80218752 -89.26080724 124.12156501 -93.67456055 124.11352539 C-94.347995 124.11367142 -95.02142944 124.11381744 -95.715271 124.1139679 C-97.93911979 124.11327175 -100.16288461 124.10549332 -102.38671875 124.09765625 C-103.92942764 124.09579101 -105.47213711 124.09436761 -107.0148468 124.09336853 C-111.07383868 124.08955169 -115.13279473 124.07972851 -119.19177246 124.06866455 C-123.33422359 124.05843252 -127.4766805 124.05386707 -131.61914062 124.04882812 C-139.74611201 124.0381055 -147.87304742 124.02051543 -156 124 C-156 114.76 -156 105.52 -156 96 C-153.15749638 97.42125181 -152.7066221 99.35724116 -151.3125 102.1875 C-147.69119991 108.96425332 -143.40429561 113.62159131 -136.078125 116.41015625 C-125.84314882 119.31519648 -116.14680145 119.63630833 -105.8125 117.5 C-100.44386988 116.44589882 -95.5626052 115.87736493 -90.0625 116.125 C-81.75300862 116.33221924 -76.22001388 112.87000147 -69.9375 107.75 C-65.81612228 104.52601904 -62.18913908 103.7475554 -57 104 C-51.76857053 104.9590954 -49.05703993 106.71572958 -45 110 C-38.08290115 114.02767781 -30.86036307 115.07668069 -23 116 C-23 112.37 -23 108.74 -23 105 C-22.34 105.33 -21.68 105.66 -21 106 C-20.67 105.34 -20.34 104.68 -20 104 C-18.68 104.33 -17.36 104.66 -16 105 C-16.33 106.65 -16.66 108.3 -17 110 C-17.99 110.33 -18.98 110.66 -20 111 C-20 111.99 -20 112.98 -20 114 C-16.37 114.33 -12.74 114.66 -9 115 C-8.67 113.68 -8.34 112.36 -8 111 C-6.68 111.66 -5.36 112.32 -4 113 C-4.33 114.65 -4.66 116.3 -5 118 C-5.99 118 -6.98 118 -8 118 C-8 118.66 -8 119.32 -8 120 C-6.39592672 120.02708567 -4.7917215 120.04643483 -3.1875 120.0625 C-2.29417969 120.07410156 -1.40085938 120.08570312 -0.48046875 120.09765625 C2.13413791 120.11009967 2.13413791 120.11009967 5 119 C4.484375 118.5875 3.96875 118.175 3.4375 117.75 C2.963125 117.1725 2.48875 116.595 2 116 C2.3125 113.8125 2.3125 113.8125 3 112 C4.32 112.33 5.64 112.66 7 113 C7 113.99 7 114.98 7 116 C8.85339912 116.0821704 10.70789582 116.13971265 12.5625 116.1875 C13.59503906 116.22230469 14.62757813 116.25710937 15.69140625 116.29296875 C19.61452161 115.94558545 22.39863059 114.56952885 26 113 C28.76946653 112.35839735 31.56213019 111.96497136 34.375 111.5625 C44.81959068 110.02210732 44.81959068 110.02210732 53.49609375 104.44921875 C55.72922075 102.29729637 58.08245789 101.86235 61.10546875 101.61328125 C66.43370651 102.32515107 70.96298643 105.20653409 75.63671875 107.72265625 C80.0779691 110.10041781 84.64425154 112.05255432 89.3125 113.9375 C90.03566406 114.23140625 90.75882813 114.5253125 91.50390625 114.828125 C99.72095963 118.13690031 108.07532346 119.80780699 116.81640625 117.140625 C118.93728431 116.17627188 120.95963314 115.12152616 123 114 C124.485 113.505 124.485 113.505 126 113 C127.18391223 110.62374655 127.18391223 110.62374655 128 108 C128.33 107.01 128.66 106.02 129 105 C129.32420055 98.01061749 129.04611389 91.08381187 128.375 84.125 C127.92106888 78.75045551 128.26968816 73.92127829 129.0625 68.625 C130.11378228 61.5185338 129.79655436 56.9713307 126.8125 50.375 C122.76238969 45.06795891 118.52092669 41.69003899 112 40 C109.1695812 39.6914875 106.34496849 39.58499906 103.5 39.5 C96.33289071 39.28586844 90.69301239 38.50286791 84.75 34.125 C70.44205075 24.28228323 52.83108633 22.70948234 36.03710938 25.32519531 C30.07896734 26.20544055 24.29642554 26.63301372 19.1875 23 C18.465625 22.34 17.74375 21.68 17 21 C16.01 20.67 15.02 20.34 14 20 C13.236875 19.175 12.47375 18.35 11.6875 17.5 C8.67224287 14.69510964 7.03307384 14.28137724 3 14 C2.67 16.97 2.34 19.94 2 23 C2.99 23.33 3.98 23.66 5 24 C5.33 25.65 5.66 27.3 6 29 C4.35 28.67 2.7 28.34 1 28 C1 27.34 1 26.68 1 26 C-1.99152582 26.77479736 -1.99152582 26.77479736 -5 28 C-5.33 28.99 -5.66 29.98 -6 31 C-1.05 31 3.9 31 9 31 C9 38 9 38 8 41 C7.01 40.67 6.02 40.34 5 40 C5.33 39.67 5.66 39.34 6 39 C3.03 38.505 3.03 38.505 0 38 C0 37.67 0 37.34 0 37 C-2.31 36.67 -4.62 36.34 -7 36 C-6.01 35.34 -5.02 34.68 -4 34 C-5.65 33.34 -7.3 32.68 -9 32 C-8.34 30.02 -7.68 28.04 -7 26 C-6.01 26 -5.02 26 -4 26 C-4 24.68 -4 23.36 -4 22 C-3.01 22 -2.02 22 -1 22 C-1.00523682 21.36908447 -1.01047363 20.73816895 -1.01586914 20.08813477 C-1.03657826 17.24626653 -1.04964066 14.40441412 -1.0625 11.5625 C-1.07087891 10.56927734 -1.07925781 9.57605469 -1.08789062 8.55273438 C-1.09111328 7.60849609 -1.09433594 6.66425781 -1.09765625 5.69140625 C-1.10289307 4.81685791 -1.10812988 3.94230957 -1.11352539 3.04125977 C-1 1 -1 1 0 0 Z " fill="#D4D4E9" transform="translate(156,1)"/>
<path d="M0 0 C0.87333984 -0.03287109 1.74667969 -0.06574219 2.64648438 -0.09960938 C9.11288245 -0.15273139 13.35097561 1.23882409 18.3125 5.4375 C23.92136732 11.67736489 23.78884984 20.05518135 23.875 28 C23.88982422 28.96921387 23.90464844 29.93842773 23.91992188 30.93701172 C23.8088326 38.73574356 22.34972735 45.81001903 17.2421875 51.91015625 C16.56414063 52.43480469 15.88609375 52.95945313 15.1875 53.5 C14.50429688 54.04785156 13.82109375 54.59570312 13.1171875 55.16015625 C8.73585384 58.26123007 4.34184922 57.77270884 -0.875 57.875 C-1.80892578 57.92076172 -2.74285156 57.96652344 -3.70507812 58.01367188 C-8.57680773 58.09252464 -11.85167113 57.86627885 -15.72265625 54.73828125 C-18.31763045 52.13328635 -19.82897548 49.73043132 -20.9375 46.1875 C-22.20659545 42.0808622 -22.20659545 42.0808622 -25.6875 39.4375 C-26.02807617 37.28271484 -26.02807617 37.28271484 -25.98046875 34.6484375 C-25.9659668 33.23691406 -25.9659668 33.23691406 -25.95117188 31.796875 C-25.92603516 30.81203125 -25.90089844 29.8271875 -25.875 28.8125 C-25.86146484 27.81992188 -25.84792969 26.82734375 -25.83398438 25.8046875 C-25.79855743 23.34841928 -25.74916196 20.89322715 -25.6875 18.4375 C-25.0275 18.1075 -24.3675 17.7775 -23.6875 17.4375 C-22.16229774 14.44076829 -20.79619494 11.3871429 -19.41796875 8.3203125 C-17.48855641 5.10607705 -15.99557739 4.08894209 -12.6875 2.4375 C-8.48223873 -0.36600751 -4.94723686 0.03214811 0 0 Z " fill="#070707" transform="translate(35.6875,49.5625)"/>
<path d="M0 0 C1.71316735 -0.04149708 3.42598183 -0.10270861 5.13769531 -0.18457031 C19.21969407 -0.84649795 19.21969407 -0.84649795 24.97973633 2.72827148 C29.03626152 6.61861361 32.0223807 9.7226714 32.40283203 15.49975586 C31.9892579 18.88626865 31.21694873 21.30121032 28.59033203 23.62475586 C27.93033203 23.62475586 27.27033203 23.62475586 26.59033203 23.62475586 C26.38408203 24.18163086 26.17783203 24.73850586 25.96533203 25.31225586 C24.04032429 28.54976888 21.55182301 30.30706727 18.59033203 32.62475586 C20.32350519 34.55050381 21.92501692 35.82883201 24.15283203 37.18725586 C31.24635357 41.82121465 38.30581626 48.30259127 40.59033203 56.62475586 C40.77783203 59.56225586 40.77783203 59.56225586 40.59033203 61.62475586 C37.34033203 62.43725586 37.34033203 62.43725586 33.59033203 62.62475586 C31.20074575 60.51629738 29.94234974 58.32493708 28.52001953 55.49584961 C25.4634139 49.51421408 22.19044538 46.28838142 16.59033203 42.62475586 C16.26033203 42.29475586 15.93033203 41.96475586 15.59033203 41.62475586 C13.59429998 41.41586878 11.59290262 41.25700109 9.59033203 41.12475586 C3.70144314 40.73586697 3.70144314 40.73586697 2.59033203 39.62475586 C1.07563755 39.39282721 -0.44721359 39.21260347 -1.97216797 39.06225586 C-2.79845703 38.9784668 -3.62474609 38.89467773 -4.47607422 38.80834961 C-5.43320313 38.7174707 -5.43320313 38.7174707 -6.40966797 38.62475586 C-5.69423828 39.82551758 -5.69423828 39.82551758 -4.96435547 41.05053711 C-3.06740942 45.41160653 -2.74822413 49.11020683 -2.53466797 53.81225586 C-2.47537109 54.61856445 -2.41607422 55.42487305 -2.35498047 56.25561523 C-2.31373047 57.03098633 -2.27248047 57.80635742 -2.22998047 58.60522461 C-2.19146973 59.30542725 -2.15295898 60.00562988 -2.11328125 60.72705078 C-2.50676141 63.24642584 -3.41003686 64.09505283 -5.40966797 65.62475586 C-8.03466797 65.87475586 -8.03466797 65.87475586 -10.40966797 65.62475586 C-11.9202949 64.11412892 -11.60499254 62.73084297 -11.69091797 60.62475586 C-11.74699219 59.41819336 -11.74699219 59.41819336 -11.80419922 58.18725586 C-11.87451172 56.47892253 -11.94482422 54.77058919 -12.01513672 53.06225586 C-12.07121094 51.85569336 -12.07121094 51.85569336 -12.12841797 50.62475586 C-12.15871094 49.88225586 -12.18900391 49.13975586 -12.22021484 48.37475586 C-12.2275921 46.59786731 -12.2275921 46.59786731 -13.40966797 45.62475586 C-13.6137828 42.10188505 -13.75607405 38.5859127 -13.83935547 35.05834961 C-13.98391216 30.41205561 -13.98391216 30.41205561 -15.93701172 26.28491211 C-18.3678829 21.89386894 -17.71996598 17.23362217 -17.59716797 12.31225586 C-17.58363281 11.28551758 -17.57009766 10.2587793 -17.55615234 9.20092773 C-17.5209068 6.67499677 -17.47163496 4.15014926 -17.40966797 1.62475586 C-12.55530354 -0.80242636 -5.38592484 0.10182396 0 0 Z " fill="#090909" transform="translate(204.40966796875,38.375244140625)"/>
<path d="M0 0 C-0.66 0.66 -1.32 1.32 -2 2 C-2 2.99 -2 3.98 -2 5 C0.2477975 2.94766315 1.0022242 1.99332739 2 -1 C3.98 -1 5.96 -1 8 -1 C8.02578125 -0.17757812 8.0515625 0.64484375 8.078125 1.4921875 C8.53801096 10.54357939 10.49845085 17.11311058 14.59765625 25.12109375 C18.52688605 33.00742024 20.91930395 39.53497618 18.33203125 48.25 C15.78232398 54.12880105 11.38699926 58.36818413 5.640625 61.13671875 C0.2131258 62.91109349 -6.00716463 63.14316499 -11.3828125 61.08984375 C-17.43762261 57.50990849 -21.73993298 52.72149803 -24 46 C-25.46392243 36.58166717 -23.2387473 30.20378378 -18.7265625 22.19140625 C-15.94718503 17.05395966 -14.78057615 12.56039615 -14.4375 6.75 C-14.09915014 1.19830028 -14.09915014 1.19830028 -13 -1 C-10.8203125 -1.484375 -10.8203125 -1.484375 -8.125 -1.75 C-7.24070313 -1.84796875 -6.35640625 -1.9459375 -5.4453125 -2.046875 C-3 -2 -3 -2 0 0 Z " fill="#050505" transform="translate(159,44)"/>
<path d="M0 0 C2.25 0.05859375 2.25 0.05859375 5 1 C6.58028309 3.37341759 7.79151346 5.51196055 9 8.0625 C9.69068413 9.4385179 10.38337825 10.81352883 11.078125 12.1875 C11.40748047 12.84878906 11.73683594 13.51007812 12.07617188 14.19140625 C13.82153888 17.60834039 15.88473687 20.80427872 18 24 C18.70125 25.093125 19.4025 26.18625 20.125 27.3125 C22.23808852 30.48087518 22.23808852 30.48087518 25 33 C29.26036593 32.72421738 31.688872 29.76814904 34.5 26.875 C35.23464478 26.12730347 35.23464478 26.12730347 35.98413086 25.36450195 C41.11319547 20.02464203 43.85226918 15.1040327 46 8 C46.33 7.34 46.66 6.68 47 6 C49.97 6 52.94 6 56 6 C56.97755409 8.93266228 57.1319608 10.84308008 57.14526367 13.89868164 C57.15164352 14.89303726 57.15802338 15.88739288 57.16459656 16.91188049 C57.16570938 17.98381149 57.1668222 19.05574249 57.16796875 20.16015625 C57.17296135 21.81137733 57.17296135 21.81137733 57.17805481 23.49595642 C57.183119 25.82355328 57.18546329 28.1511574 57.18530273 30.47875977 C57.18749339 34.05171542 57.20566609 37.62436445 57.22460938 41.19726562 C57.22754248 43.45572811 57.22952783 45.71419206 57.23046875 47.97265625 C57.23765427 49.04661148 57.24483978 50.12056671 57.25224304 51.22706604 C57.24916641 52.2182695 57.24608978 53.20947296 57.24291992 54.23071289 C57.24434494 55.10546768 57.24576996 55.98022247 57.24723816 56.88148499 C57 59 57 59 55 61 C51.46428571 60.46428571 51.46428571 60.46428571 50 59 C49.91148471 56.40640678 49.88474055 53.83960309 49.90234375 51.24609375 C49.9037587 50.47064713 49.90517365 49.6952005 49.90663147 48.89625549 C49.91224655 46.40996506 49.92480154 43.9237634 49.9375 41.4375 C49.94251306 39.75586067 49.9470763 38.07421994 49.95117188 36.39257812 C49.96222087 32.26168434 49.97949555 28.13085724 50 24 C45.58973771 27.54516939 42.00914303 30.96174113 38.8125 35.6875 C33.69513618 43.22284428 33.69513618 43.22284428 28.88671875 44.609375 C26.3457976 44.77184953 24.45570963 44.71469045 22 44 C19.04467632 41.39132462 17.07051845 38.33240158 15 35 C14.50242187 34.23816406 14.00484375 33.47632813 13.4921875 32.69140625 C11.87704669 30.17640127 10.33694518 27.67389035 9 25 C8.98018066 25.64549805 8.96036133 26.29099609 8.93994141 26.95605469 C8.84453672 29.88777221 8.73492029 32.81879232 8.625 35.75 C8.57859375 37.27367188 8.57859375 37.27367188 8.53125 38.828125 C8.49257812 39.8078125 8.45390625 40.7875 8.4140625 41.796875 C8.3826416 42.69760742 8.3512207 43.59833984 8.31884766 44.52636719 C7.98597537 47.10880365 7.22513724 48.72938027 6 51 C5.64081912 53.84895742 5.49745882 56.67239308 5.34375 59.5390625 C5 62 5 62 3 64 C0.375 64.125 0.375 64.125 -2 64 C-4.7239323 59.19306064 -4.21562495 54.22147631 -3 49 C-2.50048828 48.23961426 -2.00097656 47.47922852 -1.48632812 46.69580078 C0.20252498 43.63267398 0.37405247 41.83668422 0.36328125 38.3671875 C0.36263672 37.31402344 0.36199219 36.26085937 0.36132812 35.17578125 C0.34521484 34.08652344 0.32910156 32.99726562 0.3125 31.875 C0.31572266 30.77800781 0.31894531 29.68101563 0.32226562 28.55078125 C0.47295737 22.42090351 0.47295737 22.42090351 -2 17 C-2.265625 13.75 -2.265625 13.75 -2.25 10 C-2.25515625 8.7625 -2.2603125 7.525 -2.265625 6.25 C-2 3 -2 3 0 0 Z " fill="#060606" transform="translate(68,46)"/>
<path d="M0 0 C0 2.64 0 5.28 0 8 C-0.99 8.33 -1.98 8.66 -3 9 C-3 9.66 -3 10.32 -3 11 C-6.46153846 14 -6.46153846 14 -9 14 C-9.22816406 14.51691406 -9.45632812 15.03382812 -9.69140625 15.56640625 C-11.48318502 18.8985799 -13.71095596 21.88845195 -15.9375 24.9375 C-16.82346297 26.15360347 -17.70761575 27.37102802 -18.58984375 28.58984375 C-19.00983643 29.16992188 -19.4298291 29.75 -19.86254883 30.34765625 C-21.14093439 32.14992896 -21.14093439 32.14992896 -22.5703125 34.80859375 C-26.45400739 40.76147034 -35.4784144 41.66299195 -41.94140625 43.13671875 C-45.12514549 44.03532203 -47.85500286 45.27733681 -50.8125 46.75 C-55.45456092 48.91894015 -57.97791059 49.76213664 -63 48 C-65.94460922 46.34732759 -68.81095966 44.62599856 -71.64453125 42.7890625 C-87.69210544 34.23284716 -113.92163466 31.71499485 -131.5625 36 C-140.46547122 39.36614106 -147.3419811 45.64223161 -152.7578125 53.3125 C-153.16773438 53.869375 -153.57765625 54.42625 -154 55 C-154.33 55 -154.66 55 -155 55 C-155.39420347 50.06887299 -154.69493856 47.81021766 -151.5625 44 C-143.20732986 34.23517022 -133.58515448 30.41947362 -121 29 C-103.19491937 28.20209744 -86.33465515 29.43417747 -69.17504883 34.32299805 C-57.4855455 37.52496269 -46.79757724 36.24279938 -36.078125 30.41015625 C-29.4151288 25.95874777 -24.93022803 20.5591444 -20.2890625 14.1484375 C-15.57066792 7.65863199 -11.57134433 2.80692248 -3.6875 0.25 C-2 0 -2 0 0 0 Z " fill="#D5D5EA" transform="translate(155,2)"/>
<path d="M0 0 C5.0006148 4.1468513 7.14263624 9.16225168 8.046875 15.54296875 C8.35692332 23.44058838 7.28376349 29.67890159 2.5625 36.125 C-1.04608056 39.82159472 -4.30358211 40.50276373 -9.3125 40.9375 C-13.08308711 40.82963495 -14.89278345 40.53696331 -17.921875 38.24609375 C-24.15865197 31.33783897 -25.86621768 26.64714468 -25.6796875 17.3828125 C-25.16208398 10.42021026 -22.82245173 5.22124225 -17.6640625 0.4140625 C-12.23249028 -2.73053194 -5.81339077 -1.4797722 0 0 Z " fill="#F3F3F3" transform="translate(44.4375,58.875)"/>
<path d="M0 0 C2.47374833 0.44174077 3.89301911 0.91538986 5.88671875 2.4921875 C12.48355299 7.19898605 22.35501841 4.5983274 29.88012695 3.70141602 C38.89148922 2.68215198 47.36782763 2.96275417 56 6 C56.76828125 6.26683594 57.5365625 6.53367187 58.328125 6.80859375 C63.69781876 8.79340387 68.18746253 11.23732927 72.796875 14.6328125 C78.7911037 18.35263528 84.82252056 18.35135372 91.63476562 18.47851562 C98.90583632 18.74636279 104.35007789 20.95786346 109.8125 25.875 C110.93591797 26.86113281 110.93591797 26.86113281 112.08203125 27.8671875 C115.81004829 32.01280319 116.54752962 36.54207607 117 42 C116.815035 45.12548814 116.41244277 48.20990391 116 51.3125 C115.29371732 57.2212812 114.85159451 62.62281441 115.69140625 68.54296875 C116.6600248 76.25513419 117.43364192 84.58470275 113.265625 91.453125 C109.09315451 96.55281115 103.08579177 98.68557098 96.703125 99.3359375 C88.70756908 99.42638497 83.16431234 98.37389128 76 95 C74.17508195 94.28764164 72.34990967 93.57585801 70.52026367 92.87573242 C65.1144781 90.80280679 60.19869651 88.6138422 55.25 85.5625 C49.68670361 82.3416442 45.15825458 82.68973307 39 84 C38.505 85.485 38.505 85.485 38 87 C32.04179689 90.8679086 25.00975371 92.00671373 18.125 93.125 C16.27237093 93.43377151 14.42074075 93.74861448 12.5703125 94.0703125 C11.76352051 94.20195801 10.95672852 94.33360352 10.12548828 94.46923828 C7.72078063 94.9430528 7.72078063 94.9430528 5 97 C2.3125 97.125 2.3125 97.125 0 97 C2.12076995 92.75846011 8.24162294 91.2573065 12.5 89.8125 C23.41176471 87.27941176 23.41176471 87.27941176 28 89 C28.33 88.34 28.66 87.68 29 87 C30.11375 86.525625 31.2275 86.05125 32.375 85.5625 C35.56942547 84.18559247 36.73198813 83.38141246 39 81 C39.99 81 40.98 81 42 81 C42 80.34 42 79.68 42 79 C46.69020279 78.0803524 49.75072567 77.63929204 54 80 C55.02104551 80.97850195 56.0206121 81.97980427 57 83 C60.25838225 85.11822791 63.39024612 86.62322115 67.0625 87.875 C71.16237221 89.30224046 75.10008962 90.91564897 79.0625 92.6875 C86.59460401 95.85839871 93.96769594 96.97018779 102 95 C105.51313877 93.53193161 108.32850945 91.76102263 110.875 88.875 C113.53970569 82.06519658 113.0756297 75.76659585 112 68.625 C110.97937252 61.82994996 111.09451088 55.78630018 112 49 C113.09252781 40.55540272 113.05743335 36.11615819 108.05859375 28.96484375 C103.93040215 25.02465328 99.39864337 22.73447186 93.6328125 22.78515625 C92.12947523 22.8647989 90.62678133 22.95752986 89.125 23.0625 C81.90092616 23.32050264 75.77678287 22.89994976 70 18 C68.75 15.828125 68.75 15.828125 68 14 C66.68 14 65.36 14 64 14 C64 13.34 64 12.68 64 12 C49.14363387 8.11089892 35.66804854 4.75048383 20.609375 9.3203125 C15.67800599 10.60483077 11.00282658 11.07468743 6.4375 8.625 C5 7 5 7 5 5 C4.01 4.67 3.02 4.34 2 4 C0.8125 1.9375 0.8125 1.9375 0 0 Z " fill="#EDF5F6" transform="translate(170,21)"/>
<path d="M0 0 C0 3.63 0 7.26 0 11 C-0.33 9.68 -0.66 8.36 -1 7 C-9.36868656 10.89241235 -12.88798052 14.96595534 -17 23 C-19.36455072 27.60323182 -21.45385779 31.27231467 -26 34 C-28.1869289 34.63092685 -30.36606703 35.08467227 -32.6015625 35.51171875 C-38.04130052 36.61915727 -43.0990608 38.34802354 -47.875 41.1875 C-51 43 -51 43 -54 43 C-54.495 43.99 -54.495 43.99 -55 45 C-61.4498085 45.99227823 -65.01098088 42.52166056 -70 39 C-79.64963756 32.30958462 -93.63709185 32.99165436 -104.97265625 32.24609375 C-107.27939548 32.05857817 -109.57684284 31.75287094 -111.86328125 31.39453125 C-116.15526867 30.84445946 -119.91258489 31.38154448 -124.125 32.25 C-124.80175781 32.37246094 -125.47851562 32.49492188 -126.17578125 32.62109375 C-133.46528808 34.04515601 -137.93735488 36.66369839 -143 42 C-143.99 42.66 -144.98 43.32 -146 44 C-147.07074592 45.96303418 -148.06295743 47.9697411 -149 50 C-149.53625 50.99 -150.0725 51.98 -150.625 53 C-152.02351176 56.05129839 -152.60490069 58.68116581 -153 62 C-153.33 62 -153.66 62 -154 62 C-154.27445983 60.35324104 -154.53674614 58.70366018 -154.7421875 57.046875 C-154.986444 55.10762639 -155.30367057 53.17797661 -155.625 51.25 C-155.52548872 44.84396161 -150.26517513 40.25250002 -146 36 C-133.89501494 25.46311727 -121.35014315 25.06809284 -106 26 C-101.94585234 26.32866117 -97.91245245 26.75824427 -93.875 27.25 C-92.94018799 27.35908691 -92.00537598 27.46817383 -91.04223633 27.58056641 C-82.00292885 28.81074417 -74.44460236 31.81215708 -66.8125 36.8125 C-62.44290398 39.4073949 -62.44290398 39.4073949 -57.5 40.25 C-53.39025049 38.78223232 -49.40960904 37.08423214 -45.41015625 35.33984375 C-40.42469254 33.38106477 -35.34101151 32.1034126 -30.15234375 30.796875 C-27.00313496 30.04220143 -27.00313496 30.04220143 -24 29 C-23.29604119 27.3487386 -22.63598234 25.67861511 -22 24 C-20.77967675 22.17355592 -19.50465877 20.38289067 -18.1875 18.625 C-15.82013788 15.44853943 -13.48419364 12.27124925 -11.25 9 C-9.29155937 6.38874583 -7.79553214 4.63876022 -5 3 C-4.34 3 -3.68 3 -3 3 C-3 2.34 -3 1.68 -3 1 C-1 0 -1 0 0 0 Z " fill="#EDF5F6" transform="translate(155,10)"/>
<path d="M0 0 C0.75732422 0.00644531 1.51464844 0.01289062 2.29492188 0.01953125 C3.08060547 0.03628906 3.86628906 0.05304687 4.67578125 0.0703125 C5.47306641 0.07933594 6.27035156 0.08835938 7.09179688 0.09765625 C9.05742025 0.12119665 11.022889 0.15706703 12.98828125 0.1953125 C13.31828125 2.5053125 13.64828125 4.8153125 13.98828125 7.1953125 C11.67828125 7.8553125 9.36828125 8.5153125 6.98828125 9.1953125 C6.96846191 9.99114746 6.94864258 10.78698242 6.92822266 11.60693359 C6.83214267 15.26168888 6.72280301 18.9159363 6.61328125 22.5703125 C6.58234375 23.82199219 6.55140625 25.07367188 6.51953125 26.36328125 C6.29513531 33.50655202 5.71285722 40.25039845 3.98828125 47.1953125 C5.62796875 47.1334375 5.62796875 47.1334375 7.30078125 47.0703125 C10.98828125 47.1953125 10.98828125 47.1953125 13.98828125 49.1953125 C13.61328125 51.6328125 13.61328125 51.6328125 12.98828125 54.1953125 C10.67304086 55.3529327 9.31712063 55.32433555 6.7421875 55.328125 C5.90494141 55.32941406 5.06769531 55.33070312 4.20507812 55.33203125 C3.32916016 55.32816406 2.45324219 55.32429688 1.55078125 55.3203125 C0.67873047 55.32417969 -0.19332031 55.32804687 -1.09179688 55.33203125 C-1.93033203 55.33074219 -2.76886719 55.32945313 -3.6328125 55.328125 C-4.40036865 55.32699707 -5.1679248 55.32586914 -5.95874023 55.32470703 C-8.01171875 55.1953125 -8.01171875 55.1953125 -11.01171875 54.1953125 C-11.01171875 52.2153125 -11.01171875 50.2353125 -11.01171875 48.1953125 C-10.06296875 48.0096875 -9.11421875 47.8240625 -8.13671875 47.6328125 C-7.10546875 47.1584375 -6.07421875 46.6840625 -5.01171875 46.1953125 C-3.6213313 42.70505008 -3.6213313 42.70505008 -3.01171875 39.1953125 C-2.51671875 38.7003125 -2.51671875 38.7003125 -2.01171875 38.1953125 C-1.85365344 36.27052437 -1.76058375 34.3403204 -1.6953125 32.41015625 C-1.65341797 31.24033203 -1.61152344 30.07050781 -1.56835938 28.86523438 C-1.50938477 27.01768555 -1.50938477 27.01768555 -1.44921875 25.1328125 C-1.40603516 23.89724609 -1.36285156 22.66167969 -1.31835938 21.38867188 C-1.21187677 18.32433915 -1.10986451 15.25992177 -1.01171875 12.1953125 C-1.63820313 12.13472656 -2.2646875 12.07414062 -2.91015625 12.01171875 C-3.72742188 11.92792969 -4.5446875 11.84414063 -5.38671875 11.7578125 C-6.60488281 11.63599609 -6.60488281 11.63599609 -7.84765625 11.51171875 C-10.01171875 11.1953125 -10.01171875 11.1953125 -12.01171875 10.1953125 C-12.32421875 7.8828125 -12.32421875 7.8828125 -12.01171875 5.1953125 C-9.69921875 3.5078125 -9.69921875 3.5078125 -7.01171875 2.1953125 C-3.96490814 0.16410543 -3.41053551 -0.05128625 0 0 Z " fill="#060606" transform="translate(263.01171875,51.8046875)"/>
<path d="M0 0 C0.33 0 0.66 0 1 0 C1.04898437 0.59167969 1.09796875 1.18335937 1.1484375 1.79296875 C1.57002916 6.24875643 2.22596159 9.86057703 4 14 C4 15.32 4 16.64 4 18 C4.66 18 5.32 18 6 18 C7.5 20.5 7.5 20.5 9 23 C9.86625 23.86625 10.7325 24.7325 11.625 25.625 C14 28 14 28 15 31 C16.72349255 31.6422386 16.72349255 31.6422386 19 32 C20.7015625 32.495 20.7015625 32.495 22.4375 33 C30.04667493 35.13590875 36.86082874 35.81107011 44.625 34.0234375 C48.22293875 33.27075151 51.65969143 32.83421772 55.33203125 32.68359375 C66.43142783 32.22066063 73.59939467 31.16266273 82.3203125 24.140625 C86.72284791 20.62373082 90.85458652 18.7812309 96.52734375 19.17578125 C101.68359932 20.06746454 106.29323069 21.74893642 111 24 C111 24.66 111 25.32 111 26 C111.804375 26.268125 112.60875 26.53625 113.4375 26.8125 C115.34492511 27.44830837 117.25195246 28.08535346 119.15625 28.73046875 C123.74261731 30.27758238 128.3347797 31.70961992 133 33 C132.67 34.32 132.34 35.64 132 37 C121.94021429 35.94356482 114.13394902 33.77188091 105.9375 27.75 C100.97915197 24.79609054 96.26219993 24.70675186 90.625 25.4375 C86.09702227 27.38921454 82.52582253 30.10308388 78.6484375 33.125 C74.09376095 36.34954977 70.85256746 37.21993481 65.3125 36.9375 C59.68786205 36.82310058 54.61333685 37.50469043 49.125 38.5625 C35.8838534 41.03635222 22.90989295 40.49189746 11.3125 32.89453125 C5.3638975 28.36668872 -0.12153301 21.53880879 -1.31689453 14.00195312 C-1.64329253 9.64315847 -1.50506172 5.34467869 -1 1 C-0.67 0.67 -0.34 0.34 0 0 Z " fill="#EDF6F7" transform="translate(1,81)"/>
<path d="M0 0 C4.04152915 -0.08746928 8.08281305 -0.14054982 12.125 -0.1875 C13.26710937 -0.21263672 14.40921875 -0.23777344 15.5859375 -0.26367188 C26.17320675 -0.35600271 26.17320675 -0.35600271 31 3 C31.66 3.66 32.32 4.32 33 5 C32.82381669 8.08572475 32.34041776 9.61128499 30.29296875 11.94921875 C29.59816406 12.52285156 28.90335938 13.09648438 28.1875 13.6875 C27.50042969 14.26886719 26.81335938 14.85023437 26.10546875 15.44921875 C22.75530435 17.91677954 20.09223693 19.17978906 15.9375 19.5 C11.9542797 19.70875489 11.9542797 19.70875489 9 22 C5.8125 22.125 5.8125 22.125 3 22 C-0.50848663 14.69065285 -0.30372936 8.00945568 0 0 Z " fill="#EFEFEF" transform="translate(195,47)"/>
<path d="M0 0 C0.66 0.33 1.32 0.66 2 1 C2 5.95 2 10.9 2 16 C3.98 16 5.96 16 8 16 C8.33 16.99 8.66 17.98 9 19 C11.50965614 18.29660434 11.50965614 18.29660434 14 17 C14.88693303 14.95894361 14.88693303 14.95894361 15 13 C15.66 13.33 16.32 13.66 17 14 C16.6390625 14.57105469 16.278125 15.14210938 15.90625 15.73046875 C11.01171072 24.28231655 10.85488669 32.48765327 13 42 C9.55783328 39.3401439 9.00495326 36.09711714 8 32 C5.525 32.495 5.525 32.495 3 33 C3 37.29 3 41.58 3 46 C3.99 45.34 4.98 44.68 6 44 C6.99 44 7.98 44 9 44 C8.25 46.4375 8.25 46.4375 7 49 C5.67696283 49.3721042 4.34262065 49.70630173 3 50 C1.71563266 51.9837767 1.71563266 51.9837767 1 54 C0.34 53.67 -0.32 53.34 -1 53 C-0.505 52.505 -0.505 52.505 0 52 C0.09340434 50.37325222 0.11745171 48.74245949 0.11352539 47.11303711 C0.11344986 46.07203354 0.11337433 45.03102997 0.11329651 43.95848083 C0.10813522 42.8262056 0.10297394 41.69393036 0.09765625 40.52734375 C0.0962413 39.37456436 0.09482635 38.22178497 0.09336853 37.03407288 C0.08775005 33.33518936 0.07519442 29.63636536 0.0625 25.9375 C0.05748738 23.43684983 0.05292406 20.93619871 0.04882812 18.43554688 C0.03777462 12.29034412 0.02101852 6.14517631 0 0 Z " fill="#F1F1F1" transform="translate(124,53)"/>
<path d="M0 0 C0.99 0.33 1.98 0.66 3 1 C3.10331031 8.42686315 2.99862699 15.63512596 2 23 C2.99 23.33 3.98 23.66 5 24 C5.33 25.65 5.66 27.3 6 29 C4.35 28.67 2.7 28.34 1 28 C1 27.34 1 26.68 1 26 C-1.99152582 26.77479736 -1.99152582 26.77479736 -5 28 C-5.33 28.99 -5.66 29.98 -6 31 C-1.05 31 3.9 31 9 31 C9 38 9 38 8 41 C6.515 40.505 6.515 40.505 5 40 C5.495 39.505 5.495 39.505 6 39 C4.02 38.67 2.04 38.34 0 38 C0 37.67 0 37.34 0 37 C-2.31 36.67 -4.62 36.34 -7 36 C-6.01 35.34 -5.02 34.68 -4 34 C-5.65 33.34 -7.3 32.68 -9 32 C-8.34 30.02 -7.68 28.04 -7 26 C-6.01 26 -5.02 26 -4 26 C-4 24.68 -4 23.36 -4 22 C-3.01 22 -2.02 22 -1 22 C-1.00523682 21.36908447 -1.01047363 20.73816895 -1.01586914 20.08813477 C-1.03657826 17.24626653 -1.04964066 14.40441412 -1.0625 11.5625 C-1.07087891 10.56927734 -1.07925781 9.57605469 -1.08789062 8.55273438 C-1.09111328 7.60849609 -1.09433594 6.66425781 -1.09765625 5.69140625 C-1.10289307 4.81685791 -1.10812988 3.94230957 -1.11352539 3.04125977 C-1 1 -1 1 0 0 Z " fill="#2A292A" transform="translate(156,1)"/>
<path d="M0 0 C0.33 0 0.66 0 1 0 C1.66 2.31 2.32 4.62 3 7 C4.65 7 6.3 7 8 7 C8.33 8.32 8.66 9.64 9 11 C9.66 11 10.32 11 11 11 C10.67 11.99 10.34 12.98 10 14 C5.545 14.495 5.545 14.495 1 15 C1 16.65 1 18.3 1 20 C3.64 20 6.28 20 9 20 C9 21.65 9 23.3 9 25 C7.35 25 5.7 25 4 25 C4.33 25.66 4.66 26.32 5 27 C3.02 26.67 1.04 26.34 -1 26 C-1.33 26.99 -1.66 27.98 -2 29 C-3.25931613 25.22205161 -2.63394135 22.93043638 -2 19 C-1.80288639 17.41783474 -1.61555409 15.83442338 -1.4375 14.25 C-1.35371094 13.51265625 -1.26992187 12.7753125 -1.18359375 12.015625 C-0.93560662 9.29304286 -1.00785595 6.60720245 -1.0625 3.875 C-1 1 -1 1 0 0 Z " fill="#C8C7C8" transform="translate(154,50)"/>
<path d="M0 0 C1.32 0.33 2.64 0.66 4 1 C3.67 2.65 3.34 4.3 3 6 C2.01 6.33 1.02 6.66 0 7 C0 7.99 0 8.98 0 10 C3.63 10.33 7.26 10.66 11 11 C11.33 9.68 11.66 8.36 12 7 C13.32 7.66 14.64 8.32 16 9 C15.67 10.65 15.34 12.3 15 14 C14.01 14 13.02 14 12 14 C11.67 14.66 11.34 15.32 11 16 C6.38 15.01 1.76 14.02 -3 13 C-3 9.04 -3 5.08 -3 1 C-2.01 1.495 -2.01 1.495 -1 2 C-0.67 1.34 -0.34 0.68 0 0 Z " fill="#E7EEEF" transform="translate(136,105)"/>
<path d="M0 0 C0.66 0.33 1.32 0.66 2 1 C2 5.95 2 10.9 2 16 C3.98 16.66 5.96 17.32 8 18 C8 18.33 8 18.66 8 19 C6.35 19 4.7 19 3 19 C2.67 22.3 2.34 25.6 2 29 C3.32 29 4.64 29 6 29 C6 30.32 6 31.64 6 33 C5.01 33 4.02 33 3 33 C3 37.29 3 41.58 3 46 C3.99 45.34 4.98 44.68 6 44 C6.99 44 7.98 44 9 44 C8.25 46.4375 8.25 46.4375 7 49 C5.67696283 49.3721042 4.34262065 49.70630173 3 50 C1.71563266 51.9837767 1.71563266 51.9837767 1 54 C0.34 53.67 -0.32 53.34 -1 53 C-0.505 52.505 -0.505 52.505 0 52 C0.09340434 50.37325222 0.11745171 48.74245949 0.11352539 47.11303711 C0.11344986 46.07203354 0.11337433 45.03102997 0.11329651 43.95848083 C0.10813522 42.8262056 0.10297394 41.69393036 0.09765625 40.52734375 C0.0962413 39.37456436 0.09482635 38.22178497 0.09336853 37.03407288 C0.08775005 33.33518936 0.07519442 29.63636536 0.0625 25.9375 C0.05748738 23.43684983 0.05292406 20.93619871 0.04882812 18.43554688 C0.03777462 12.29034412 0.02101852 6.14517631 0 0 Z " fill="#898989" transform="translate(124,53)"/>
<path d="M0 0 C0.33 0.99 0.66 1.98 1 3 C7.93 3.495 7.93 3.495 15 4 C15 4.33 15 4.66 15 5 C11.7 5.33 8.4 5.66 5 6 C8.63 6.33 12.26 6.66 16 7 C16 7.99 16 8.98 16 10 C16.33 10.99 16.66 11.98 17 13 C16.01 13 15.02 13 14 13 C13.9175 13.598125 13.835 14.19625 13.75 14.8125 C12.79544128 17.5966296 11.42867729 18.43311142 9 20 C9.165 19.21625 9.33 18.4325 9.5 17.625 C10.17913446 14.18082427 10.17913446 14.18082427 9 11 C6.87423218 10.53348793 6.87423218 10.53348793 4.4375 10.375 C3.61121094 10.30023438 2.78492188 10.22546875 1.93359375 10.1484375 C1.29550781 10.09945312 0.65742188 10.05046875 0 10 C-0.38922918 8.71254964 -0.76098036 7.41980403 -1.125 6.125 C-1.43824219 5.04605469 -1.43824219 5.04605469 -1.7578125 3.9453125 C-1.83773437 3.30335937 -1.91765625 2.66140625 -2 2 C-1.34 1.34 -0.68 0.68 0 0 Z " fill="#8C8B8D" transform="translate(147,30)"/>
<path d="M0 0 C0.66 0 1.32 0 2 0 C2.33 5.61 2.66 11.22 3 17 C6.11257569 17 8.10765685 16.82638376 11 16 C10.67 18.64 10.34 21.28 10 24 C11.98 23.67 13.96 23.34 16 23 C15.25 25.4375 15.25 25.4375 14 28 C11.9375 28.625 11.9375 28.625 10 29 C9.67 29.99 9.34 30.98 9 32 C7.84917315 29.75243216 6.70423142 27.50218252 5.5625 25.25 C5.23701172 24.61578125 4.91152344 23.9815625 4.57617188 23.328125 C1.64354303 17.52333389 0.85718955 13.2252102 0.4375 6.75 C0.35371094 5.48671875 0.26992187 4.2234375 0.18359375 2.921875 C0.12300781 1.95765625 0.06242188 0.9934375 0 0 Z " fill="#C8C8C8" transform="translate(166,42)"/>
<path d="M0 0 C2.85028307 2.76795027 4.70371472 5.6524403 6.71875 9.0625 C7.98062693 10.97070413 9.32942204 12.44597399 11 14 C10.67 14.66 10.34 15.32 10 16 C7.36 13.69 4.72 11.38 2 9 C2.02320312 9.79664062 2.04640625 10.59328125 2.0703125 11.4140625 C2.16771959 17.13325036 1.9954971 21.6004196 0 27 C-0.29706461 29.57591642 -0.49723611 32.14251766 -0.65625 34.73046875 C-1 37 -1 37 -3 40 C-3.66 39.67 -4.32 39.34 -5 39 C-4.505 38.505 -4.505 38.505 -4 38 C-3.71437237 35.25706804 -3.55160727 32.51391162 -3.37890625 29.76171875 C-3 27 -3 27 -2.00219727 25.16625977 C-0.78158679 22.52789759 -0.68261454 20.47843619 -0.5859375 17.578125 C-0.52792969 16.04091797 -0.52792969 16.04091797 -0.46875 14.47265625 C-0.4378125 13.40917969 -0.406875 12.34570312 -0.375 11.25 C-0.33632812 10.17105469 -0.29765625 9.09210938 -0.2578125 7.98046875 C-0.16365369 5.32048225 -0.07802613 2.6605006 0 0 Z " fill="#AEADAE" transform="translate(76,70)"/>
<path d="M0 0 C0.33 0 0.66 0 1 0 C1 2.64 1 5.28 1 8 C1.99 8.33 2.98 8.66 4 9 C4.309375 9.99 4.61875 10.98 4.9375 12 C5.288125 12.99 5.63875 13.98 6 15 C7.32 15.33 8.64 15.66 10 16 C9.67 18.97 9.34 21.94 9 25 C8.34 25 7.68 25 7 25 C5.91825838 21.63458162 6.07461831 20.70152678 7 17 C2.05 17 -2.9 17 -8 17 C-7.67 15.68 -7.34 14.36 -7 13 C-5.02 12.67 -3.04 12.34 -1 12 C-1 12.66 -1 13.32 -1 14 C0.32 14 1.64 14 3 14 C2.65213292 12.02463255 2.65213292 12.02463255 2 10 C1.34 9.67 0.68 9.34 0 9 C0 6.03 0 3.06 0 0 Z " fill="#9D9B9D" transform="translate(158,15)"/>
<path d="M0 0 C0.99 0.33 1.98 0.66 3 1 C3.10331031 8.42686315 2.99862699 15.63512596 2 23 C2.99 23.33 3.98 23.66 5 24 C5.33 25.65 5.66 27.3 6 29 C3.625 28.8125 3.625 28.8125 1 28 C-0.80141647 24.51881719 -1.24842603 21.62018978 -1.23046875 17.734375 C-1.22853516 16.76242188 -1.22660156 15.79046875 -1.22460938 14.7890625 C-1.21236328 13.78617188 -1.20011719 12.78328125 -1.1875 11.75 C-1.18685547 10.73164063 -1.18621094 9.71328125 -1.18554688 8.6640625 C-1.14040493 1.14040493 -1.14040493 1.14040493 0 0 Z " fill="#141415" transform="translate(156,1)"/>
<path d="M0 0 C0.33 0 0.66 0 1 0 C1 1.65 1 3.3 1 5 C3.64 5 6.28 5 9 5 C9 6.65 9 8.3 9 10 C7.35 10 5.7 10 4 10 C4.33 10.66 4.66 11.32 5 12 C2.03 11.505 2.03 11.505 -1 11 C-1.33 11.99 -1.66 12.98 -2 14 C-3.21065165 10.36804504 -2.62784815 8.93468371 -1.5625 5.3125 C-1.27503906 4.31863281 -0.98757812 3.32476562 -0.69140625 2.30078125 C-0.46324219 1.54152344 -0.23507813 0.78226562 0 0 Z " fill="#3D3D3D" transform="translate(154,65)"/>
<path d="M0 0 C1.98 0.495 1.98 0.495 4 1 C4 1.99 4 2.98 4 4 C6.97 4.33 9.94 4.66 13 5 C10.09907498 6.93395001 9.10325263 7.30131941 5.8125 7.625 C4.554375 7.74875 3.29625 7.8725 2 8 C0.4375 6.25 0.4375 6.25 -1 4 C-0.6875 1.75 -0.6875 1.75 0 0 Z " fill="#EAF1F2" transform="translate(159,113)"/>
<path d="M0 0 C1.32 0.33 2.64 0.66 4 1 C3.6875 3.375 3.6875 3.375 3 6 C2.01 6.66 1.02 7.32 0 8 C-0.66 8.99 -1.32 9.98 -2 11 C-3.60725635 7.78548731 -3.05748185 4.56387464 -3 1 C-2.01 1.495 -2.01 1.495 -1 2 C-0.67 1.34 -0.34 0.68 0 0 Z " fill="#5C5C5C" transform="translate(136,105)"/>
<path d="M0 0 C1.65 0 3.3 0 5 0 C5.33 1.32 5.66 2.64 6 4 C6.66 4 7.32 4 8 4 C7.67 4.99 7.34 5.98 7 7 C4.125 7.125 4.125 7.125 1 7 C0.34 6.34 -0.32 5.68 -1 5 C-0.625 2.375 -0.625 2.375 0 0 Z " fill="#696969" transform="translate(157,57)"/>
<path d="M0 0 C1.32 0.33 2.64 0.66 4 1 C3.01 1 2.02 1 1 1 C1 5.29 1 9.58 1 14 C1.99 13.34 2.98 12.68 4 12 C4.99 12 5.98 12 7 12 C6.25 14.4375 6.25 14.4375 5 17 C2.9375 17.6875 2.9375 17.6875 1 18 C0.67 18.66 0.34 19.32 0 20 C0 13.4 0 6.8 0 0 Z " fill="#9E9E9E" transform="translate(126,85)"/>
<path d="M0 0 C0.33 0 0.66 0 1 0 C0.98839844 1.05960938 0.97679687 2.11921875 0.96484375 3.2109375 C0.95546524 4.59895658 0.94636511 5.98697755 0.9375 7.375 C0.92912109 8.07367188 0.92074219 8.77234375 0.91210938 9.4921875 C0.8164558 13.37295376 0.8164558 13.37295376 2 17 C-2.455 18.485 -2.455 18.485 -7 20 C-6.505 18.515 -6.505 18.515 -6 17 C-5.01 17 -4.02 17 -3 17 C-3 15.68 -3 14.36 -3 13 C-2.01 13 -1.02 13 0 13 C0 8.71 0 4.42 0 0 Z " fill="#454546" transform="translate(155,10)"/>
<path d="M0 0 C2.375 -0.125 2.375 -0.125 5 0 C5.66 0.66 6.32 1.32 7 2 C9.57061311 2.64767793 9.57061311 2.64767793 12 3 C12 3.33 12 3.66 12 4 C9.91695462 4.05418326 7.83350232 4.09287551 5.75 4.125 C4.00976562 4.15980469 4.00976562 4.15980469 2.234375 4.1953125 C-0.82786046 4.0103949 -2.44202751 3.60823023 -5 2 C-3.35 2 -1.7 2 0 2 C0 1.34 0 0.68 0 0 Z " fill="#808080" transform="translate(178,100)"/>
<path d="M0 0 C0.66 4.95 1.32 9.9 2 15 C-1.34905453 11.65094547 -1.89470285 9.50621146 -3 5 C-3.66 5 -4.32 5 -5 5 C-5 4.34 -5 3.68 -5 3 C-1.42307692 0 -1.42307692 0 0 0 Z " fill="#CDCDCD" transform="translate(135,80)"/>
<path d="M0 0 C0.33 0 0.66 0 1 0 C1 2.64 1 5.28 1 8 C2.32 8.33 3.64 8.66 5 9 C5.33 10.65 5.66 12.3 6 14 C3.625 13.8125 3.625 13.8125 1 13 C-1.84176266 8.737356 -0.81138016 4.78714297 0 0 Z " fill="#050505" transform="translate(156,16)"/>
<path d="M0 0 C0.99 0.495 0.99 0.495 2 1 C2 5.95 2 10.9 2 16 C3.98 16.66 5.96 17.32 8 18 C8 18.33 8 18.66 8 19 C5.69 18.67 3.38 18.34 1 18 C0.67 12.06 0.34 6.12 0 0 Z " fill="#636363" transform="translate(124,53)"/>
<path d="M0 0 C0.5625 1.9375 0.5625 1.9375 1 4 C0 5 0 5 -3.5625 5.0625 C-4.696875 5.041875 -5.83125 5.02125 -7 5 C-6.67 3.68 -6.34 2.36 -6 1 C-3.92446352 0.4465236 -2.15634036 0 0 0 Z " fill="#B1AEB2" transform="translate(157,27)"/>
<path d="M0 0 C0.33 0.99 0.66 1.98 1 3 C7.93 3.495 7.93 3.495 15 4 C15 4.33 15 4.66 15 5 C10.38 5.33 5.76 5.66 1 6 C0.67 7.32 0.34 8.64 0 10 C-0.38922918 8.71254964 -0.76098036 7.41980403 -1.125 6.125 C-1.43824219 5.04605469 -1.43824219 5.04605469 -1.7578125 3.9453125 C-1.83773437 3.30335937 -1.91765625 2.66140625 -2 2 C-1.34 1.34 -0.68 0.68 0 0 Z " fill="#AEABAE" transform="translate(147,30)"/>
<path d="M0 0 C1.32 0.66 2.64 1.32 4 2 C3.67 3.65 3.34 5.3 3 7 C1.68 6.67 0.36 6.34 -1 6 C-1.042721 4.33388095 -1.04063832 2.66617115 -1 1 C-0.67 0.67 -0.34 0.34 0 0 Z " fill="#4A4C4C" transform="translate(148,112)"/>
<path d="M0 0 C0.66 0 1.32 0 2 0 C2 0.66 2 1.32 2 2 C2.66 2 3.32 2 4 2 C4.33 3.32 4.66 4.64 5 6 C2.03 5.505 2.03 5.505 -1 5 C-1.33 5.99 -1.66 6.98 -2 8 C-3 5 -3 5 -1.6875 2.3125 C-1.130625 1.549375 -0.57375 0.78625 0 0 Z " fill="#979797" transform="translate(154,71)"/>
<path d="M0 0 C-0.75 2.4375 -0.75 2.4375 -2 5 C-4.0625 5.625 -4.0625 5.625 -6 6 C-6.33 6.99 -6.66 7.98 -7 9 C-7.66 7.35 -8.32 5.7 -9 4 C-8.1028125 3.566875 -8.1028125 3.566875 -7.1875 3.125 C-1.11111111 0 -1.11111111 0 0 0 Z " fill="#838383" transform="translate(182,65)"/>
<path d="M0 0 C2.475 0.99 2.475 0.99 5 2 C4.67 3.32 4.34 4.64 4 6 C2.35 5.67 0.7 5.34 -1 5 C-0.67 3.35 -0.34 1.7 0 0 Z " fill="#6A6A6A" transform="translate(171,108)"/>
<path d="M0 0 C0 3 0 3 -1.75 5.04296875 C-2.4925 5.75066406 -3.235 6.45835938 -4 7.1875 C-4.7425 7.90292969 -5.485 8.61835937 -6.25 9.35546875 C-7.11625 10.16951172 -7.11625 10.16951172 -8 11 C-8.66 10.67 -9.32 10.34 -10 10 C-3.84965831 2.51708428 -3.84965831 2.51708428 0 0 Z " fill="#DDDDEB" transform="translate(12,38)"/>
<path d="M0 0 C4.1666604 0.47348414 6.92884715 1.04696841 10 4 C10 4.66 10 5.32 10 6 C5 4 5 4 0 2 C0 1.34 0 0.68 0 0 Z " fill="#EDF3F4" transform="translate(159,14)"/>
<path d="M0 0 C1.98 0.495 1.98 0.495 4 1 C3.67 2.65 3.34 4.3 3 6 C1.68 5.34 0.36 4.68 -1 4 C-0.67 2.68 -0.34 1.36 0 0 Z " fill="#525353" transform="translate(159,113)"/>
<path d="M0 0 C2.8290723 2.8290723 3.37611108 3.38144425 4 7 C3.01 6.67 2.02 6.34 1 6 C1 7.65 1 9.3 1 11 C0.67 11 0.34 11 0 11 C0 7.37 0 3.74 0 0 Z " fill="#B7B7B7" transform="translate(76,70)"/>
<path d="M0 0 C0.66 0.33 1.32 0.66 2 1 C0.35 4.3 -1.3 7.6 -3 11 C-4.04449911 7.86650268 -3.93423645 7.01031744 -3 4 C-2.34 4 -1.68 4 -1 4 C-0.67 2.68 -0.34 1.36 0 0 Z " fill="#DDDDDD" transform="translate(139,66)"/>
<path d="M0 0 C0.33 0.99 0.66 1.98 1 3 C-0.65 4.32 -2.3 5.64 -4 7 C-3.6875 4.625 -3.6875 4.625 -3 2 C-2.01 1.34 -1.02 0.68 0 0 Z " fill="#E4E3E4" transform="translate(160,43)"/>
<path d="M0 0 C0 1.65 0 3.3 0 5 C-1.9375 4.6875 -1.9375 4.6875 -4 4 C-4.33 3.01 -4.66 2.02 -5 1 C-2 0 -2 0 0 0 Z " fill="#878687" transform="translate(163,70)"/>
<path d="M0 0 C0.33 1.32 0.66 2.64 1 4 C3.31 4 5.62 4 8 4 C8 4.33 8 4.66 8 5 C5.03 5 2.06 5 -1 5 C-1.33 4.34 -1.66 3.68 -2 3 C-1.34 2.01 -0.68 1.02 0 0 Z " fill="#101010" transform="translate(149,29)"/>
</svg>
